<svg xmlns="http://www.w3.org/2000/svg" width="45" height="45" viewBox="0 0 45 45">
  <g id="グループ_1107" data-name="グループ 1107" transform="translate(-146 -512)">
    <circle id="楕円形_17" data-name="楕円形 17" cx="22.5" cy="22.5" r="22.5" transform="translate(146 512)" fill="#faf8f5"/>
    <path id="楕円形_17_-_アウトライン" data-name="楕円形 17 - アウトライン" d="M22.5,1a21.506,21.506,0,0,0-8.368,41.311A21.506,21.506,0,0,0,30.868,2.689,21.364,21.364,0,0,0,22.5,1m0-1A22.5,22.5,0,1,1,0,22.5,22.5,22.5,0,0,1,22.5,0Z" transform="translate(146 512)"/>
    <path id="パス_7" data-name="パス 7" d="M.707,17.85-.707,16.436,7.157,8.571-.707.707.707-.707,9.571,8.157v.414a1.067,1.067,0,0,1-.389.8Z" transform="translate(177.072 531.822) rotate(90)"/>
  </g>
</svg>
