<svg id="グループ_1106" data-name="グループ 1106" xmlns="http://www.w3.org/2000/svg" width="84" height="84" viewBox="0 0 84 84">
  <circle id="楕円形_17" data-name="楕円形 17" cx="42" cy="42" r="42" fill="#faf8f5"/>
  <path id="楕円形_17_-_アウトライン" data-name="楕円形 17 - アウトライン" d="M42,1A41.011,41.011,0,0,0,26.041,79.778,41.011,41.011,0,0,0,57.959,4.222,40.742,40.742,0,0,0,42,1m0-1A42,42,0,1,1,0,42,42,42,0,0,1,42,0Z"/>
  <path id="パス_7" data-name="パス 7" d="M5771.708,930.707l-1.414-1.414L5785.587,914l-15.293-15.293,1.414-1.414L5788,913.586V914a1.151,1.151,0,0,1-.473.887Z" transform="translate(956 -5734) rotate(90)"/>
</svg>
