<svg xmlns="http://www.w3.org/2000/svg" width="33.064" height="20.379" viewBox="0 0 33.064 20.379">
  <path id="パス_35" data-name="パス 35" d="M7.26-6.4a1.5,1.5,0,0,0-.229-.853,1.757,1.757,0,0,0-.545-.536,2.563,2.563,0,0,0-.721-.281,3.264,3.264,0,0,0-.721-.088,2.812,2.812,0,0,0-1.116.237,2.74,2.74,0,0,0-.976.712,3.522,3.522,0,0,0-.7,1.187,4.774,4.774,0,0,0-.264,1.661,3.958,3.958,0,0,0,.8,2.549,2.705,2.705,0,0,0,2.241,1,2.691,2.691,0,0,0,.615-.1,3.6,3.6,0,0,0,.738-.272A2.944,2.944,0,0,0,7-1.582a.653.653,0,0,0,.264-.492Zm0-5.344a4.791,4.791,0,0,0-.044-.729.833.833,0,0,0-.185-.431.57.57,0,0,0-.36-.176,4.275,4.275,0,0,0-.606-.035v-.352a5.623,5.623,0,0,0,1.1-.325,3.155,3.155,0,0,0,.94-.589H8.42q-.053.475-.07,1.011t-.018.958V-1.74q0,.6.308.712a2.483,2.483,0,0,0,.94.079V-.6q-.334.105-.958.352T7.471.229q-.105.053-.158.009A.185.185,0,0,1,7.26.088V-1.23A5.346,5.346,0,0,1,5.774-.2a3.656,3.656,0,0,1-1.5.343A2.955,2.955,0,0,1,2.856-.2a3.464,3.464,0,0,1-1.1-.923,4.077,4.077,0,0,1-.7-1.31A4.885,4.885,0,0,1,.809-3.973,4.745,4.745,0,0,1,1.16-5.783a4.836,4.836,0,0,1,.967-1.512A4.567,4.567,0,0,1,3.533-8.332a3.942,3.942,0,0,1,1.723-.387,4.372,4.372,0,0,1,.888.1,5.4,5.4,0,0,1,1.116.4Zm8.6,7.313a17.431,17.431,0,0,0-2.892,1.081,1.469,1.469,0,0,0-.958,1.274,1.259,1.259,0,0,0,.413,1.1,1.98,1.98,0,0,0,1.151.29,2.427,2.427,0,0,0,1.248-.352,4.535,4.535,0,0,0,1.037-.826ZM18.51-.809a6.784,6.784,0,0,1-.817.668,1.515,1.515,0,0,1-.87.3.777.777,0,0,1-.677-.387,2.25,2.25,0,0,1-.29-1.125,5.476,5.476,0,0,1-1.441,1.1,3.523,3.523,0,0,1-1.652.413A1.865,1.865,0,0,1,11.426-.36a1.624,1.624,0,0,1-.51-1.31,1.8,1.8,0,0,1,.4-1.116A3.3,3.3,0,0,1,12.357-3.6a9.759,9.759,0,0,1,1.547-.65q.9-.3,1.951-.633V-6.1a2.129,2.129,0,0,0-.36-1.274,1.627,1.627,0,0,0-1.4-.5,2.117,2.117,0,0,0-1.31.431A1.326,1.326,0,0,0,12.2-6.4a.93.93,0,0,1-.167.615.525.525,0,0,1-.413.193.366.366,0,0,1-.325-.176.826.826,0,0,1-.114-.457,1.285,1.285,0,0,1,.448-.914,6.382,6.382,0,0,1,1.45-.967,7.759,7.759,0,0,1,.958-.457,2.275,2.275,0,0,1,.8-.141,2.249,2.249,0,0,1,1.468.51,1.8,1.8,0,0,1,.624,1.477v4.8q0,.984.431,1.125a1.314,1.314,0,0,0,1.1-.316Zm3.357-1.635a2.314,2.314,0,0,0,.3,1.389.986.986,0,0,0,.809.369,1.887,1.887,0,0,0,.4-.053,3.275,3.275,0,0,0,.466-.141q.246-.088.439-.176a1.338,1.338,0,0,0,.3-.176l.158.246a4.508,4.508,0,0,1-1.072.835,2.523,2.523,0,0,1-1.23.308,1.639,1.639,0,0,1-1.213-.439,1.739,1.739,0,0,1-.439-1.283V-7.453h-1.23v-.334a2.32,2.32,0,0,0,1.318-.861,4.209,4.209,0,0,0,.633-1.723h.369v2.145H24.68v.773H21.867Zm4.992-2.9a2.866,2.866,0,0,0-.053.563q0,.3.035.773a3.847,3.847,0,0,0,.826,2.241,2.468,2.468,0,0,0,2.021.905A3.183,3.183,0,0,0,31.21-1.2a3.5,3.5,0,0,0,1.063-.853l.246.158A4.419,4.419,0,0,1,31.192-.431,3.172,3.172,0,0,1,29.32.158a3.116,3.116,0,0,1-1.4-.316,3.439,3.439,0,0,1-1.116-.879,4.265,4.265,0,0,1-.747-1.318,4.84,4.84,0,0,1-.272-1.652,6.506,6.506,0,0,1,.281-1.986,4.608,4.608,0,0,1,.756-1.477A3.292,3.292,0,0,1,27.976-8.4a3.228,3.228,0,0,1,1.415-.316,3.318,3.318,0,0,1,1.055.176,2.9,2.9,0,0,1,.949.527,2.816,2.816,0,0,1,.686.923,3.2,3.2,0,0,1,.281,1.31.674.674,0,0,1-.053.308.349.349,0,0,1-.264.132Zm3.762-.562a.828.828,0,0,0,.457-.1.408.408,0,0,0,.141-.36,1.557,1.557,0,0,0-.132-.6,2.134,2.134,0,0,0-.36-.58,2.08,2.08,0,0,0-.6-.439,1.785,1.785,0,0,0-.809-.176,2.141,2.141,0,0,0-1.608.624,3.116,3.116,0,0,0-.8,1.626ZM0,5H33.064V6H0Z" transform="translate(0 14.379)"/>
</svg>
