<svg xmlns="http://www.w3.org/2000/svg" width="14.959" height="16.371" viewBox="0 0 14.959 16.371">
  <path id="パス_34" data-name="パス 34" d="M5.748-4.43A17.431,17.431,0,0,0,2.856-3.349,1.469,1.469,0,0,0,1.9-2.074a1.259,1.259,0,0,0,.413,1.1,1.98,1.98,0,0,0,1.151.29,2.427,2.427,0,0,0,1.248-.352,4.535,4.535,0,0,0,1.037-.826ZM8.4-.809a6.784,6.784,0,0,1-.817.668,1.515,1.515,0,0,1-.87.3.777.777,0,0,1-.677-.387,2.25,2.25,0,0,1-.29-1.125,5.476,5.476,0,0,1-1.441,1.1A3.523,3.523,0,0,1,2.654.158,1.865,1.865,0,0,1,1.318-.36a1.624,1.624,0,0,1-.51-1.31,1.8,1.8,0,0,1,.4-1.116A3.3,3.3,0,0,1,2.25-3.6,9.759,9.759,0,0,1,3.8-4.254q.9-.3,1.951-.633V-6.1a2.129,2.129,0,0,0-.36-1.274,1.627,1.627,0,0,0-1.4-.5,2.117,2.117,0,0,0-1.31.431A1.326,1.326,0,0,0,2.092-6.4a.93.93,0,0,1-.167.615.525.525,0,0,1-.413.193.366.366,0,0,1-.325-.176.826.826,0,0,1-.114-.457,1.285,1.285,0,0,1,.448-.914A6.382,6.382,0,0,1,2.971-8.1a7.759,7.759,0,0,1,.958-.457,2.275,2.275,0,0,1,.8-.141,2.249,2.249,0,0,1,1.468.51A1.8,1.8,0,0,1,6.82-6.715v4.8q0,.984.431,1.125a1.314,1.314,0,0,0,1.1-.316ZM11.76-2.443a2.314,2.314,0,0,0,.3,1.389.986.986,0,0,0,.809.369,1.887,1.887,0,0,0,.4-.053,3.275,3.275,0,0,0,.466-.141q.246-.088.439-.176a1.338,1.338,0,0,0,.3-.176l.158.246a4.508,4.508,0,0,1-1.072.835,2.523,2.523,0,0,1-1.23.308,1.639,1.639,0,0,1-1.213-.439,1.739,1.739,0,0,1-.439-1.283V-7.453H9.439v-.334a2.32,2.32,0,0,0,1.318-.861,4.209,4.209,0,0,0,.633-1.723h.369v2.145h2.813v.773H11.76ZM0,5H14.959V6H0Z" transform="translate(0 10.371)"/>
</svg>
