<svg xmlns="http://www.w3.org/2000/svg" width="201.564" height="19.7" viewBox="0 0 201.564 19.7">
  <g id="グループ_65" data-name="グループ 65" transform="translate(-593.437 -7307.4)">
    <path id="パス_1687" data-name="パス 1687" d="M-84.31-3.14A2.961,2.961,0,0,0-85.39-5.6l-1.6-1.18a4.34,4.34,0,0,1-1.8-3.78A4.2,4.2,0,0,1-88-13.47a2.84,2.84,0,0,1,2.16-.83,2.858,2.858,0,0,1,2.13.77,4.486,4.486,0,0,1,.92,2.79l-1.52.34q-.08-2.56-1.49-2.56t-1.41,2.18A4.816,4.816,0,0,0-87-9.22a2.415,2.415,0,0,0,.81,1.08l1.58,1.18a6.2,6.2,0,0,1,.9.76,3.633,3.633,0,0,1,.65,1.15,5.11,5.11,0,0,1,.31,1.87,3.6,3.6,0,0,1-.83,2.7A3.153,3.153,0,0,1-85.83.3a2.787,2.787,0,0,1-2.22-.92,5.777,5.777,0,0,1-.98-3.28l1.5-.26a5.761,5.761,0,0,0,.49,2.42,1.269,1.269,0,0,0,1.15.72Q-84.31-1.02-84.31-3.14Zm5.26-3.2v5.06h3.48V0h-5.08V-14h5.02v1.28h-3.42v5.1h3.12v1.28ZM-72.81-14l2,11.68,2-11.68h1.6l-2.6,14h-2l-2.6-14Zm8.78,7.66v5.06h3.48V0h-5.08V-14h5.02v1.28h-3.42v5.1h3.12v1.28ZM-56.89,0h-1.56V-14h1.66l3.26,10.24V-14h1.56V0h-1.66l-3.26-10.22Zm6.44-12.72V-14h5.46v1.28h-1.94V0h-1.58V-12.72Zm8.58,6.38v5.06h3.48V0h-5.08V-14h5.02v1.28h-3.42v5.1h3.12v1.28Zm7.18,0v5.06h3.48V0h-5.08V-14h5.02v1.28h-3.42v5.1h3.12v1.28ZM-27.55,0h-1.56V-14h1.66l3.26,10.24V-14h1.56V0h-1.66l-3.26-10.22Zm10.7-2.56a3.116,3.116,0,0,0,.29,1.27.646.646,0,0,0,.57.33q.76,0,.76-1.86V-14h1.58V-3.14Q-13.65.3-16.07.3a2.07,2.07,0,0,1-1.45-.61,3.089,3.089,0,0,1-.77-2.05Zm5.16-.78a4.3,4.3,0,0,1,.56-2.59,1.942,1.942,0,0,1,1.6-.69,1.939,1.939,0,0,1,1.64.8v-2.1q0-1.92-1.2-1.92a2.535,2.535,0,0,0-1.94,1.18l-.54-1.12a3.828,3.828,0,0,1,1.17-.94,3.04,3.04,0,0,1,1.45-.38q2.6,0,2.6,3.52V0h-.94l-.32-1.3A2.212,2.212,0,0,1-8.34-.1,1.815,1.815,0,0,1-9.49.3a1.988,1.988,0,0,1-1.64-.69,4.3,4.3,0,0,1-.56-2.59ZM-9.17-.96a1.093,1.093,0,0,0,.91-.42A2.725,2.725,0,0,0-7.89-2.9v-.54a3.146,3.146,0,0,0-.37-1.64,1.059,1.059,0,0,0-.91-.46q-1,0-1,1.9v.78Q-10.17-.96-9.17-.96Zm5.2-9.84h.94l.4,1.74q.46-2.04,2.04-2.04a1.8,1.8,0,0,1,1.62.9,6.786,6.786,0,0,1,.56,3.3v3A6.786,6.786,0,0,1,1.03-.6,1.8,1.8,0,0,1-.59.3Q-2.05.3-2.51-1.58V3.6H-3.97Zm1.46,5.4a13.771,13.771,0,0,0,.23,2.84,2.875,2.875,0,0,0,.53,1.33,1.1,1.1,0,0,0,.8.29Q.13-.94.13-3.42V-7.38q0-2.48-1.06-2.48a1.106,1.106,0,0,0-.77.28,2.626,2.626,0,0,0-.55,1.24,12.094,12.094,0,0,0-.26,2.66ZM3.47-3.34a4.3,4.3,0,0,1,.56-2.59,1.942,1.942,0,0,1,1.6-.69,1.939,1.939,0,0,1,1.64.8v-2.1q0-1.92-1.2-1.92A2.535,2.535,0,0,0,4.13-8.66L3.59-9.78a3.828,3.828,0,0,1,1.17-.94,3.04,3.04,0,0,1,1.45-.38q2.6,0,2.6,3.52V0H7.87L7.55-1.3A2.212,2.212,0,0,1,6.82-.1,1.815,1.815,0,0,1,5.67.3,1.988,1.988,0,0,1,4.03-.39a4.3,4.3,0,0,1-.56-2.59ZM5.99-.96a1.093,1.093,0,0,0,.91-.42A2.725,2.725,0,0,0,7.27-2.9v-.54A3.146,3.146,0,0,0,6.9-5.08a1.059,1.059,0,0,0-.91-.46q-1,0-1,1.9v.78Q4.99-.96,5.99-.96ZM12.73,0H11.19V-10.8h.94l.4,1.72q.42-2.02,2.1-2.02a1.75,1.75,0,0,1,1.59.92,7.144,7.144,0,0,1,.55,3.36V0H15.23V-7.36q0-2.5-.98-2.5-1.48,0-1.52,4.28ZM27.37-6.9v3a5.448,5.448,0,0,1-.73,3.29A2.512,2.512,0,0,1,24.56.3a2.512,2.512,0,0,1-2.08-.91,5.448,5.448,0,0,1-.73-3.29v-3a5.448,5.448,0,0,1,.73-3.29,2.512,2.512,0,0,1,2.08-.91,2.512,2.512,0,0,1,2.08.91A5.448,5.448,0,0,1,27.37-6.9ZM25.83-3.62V-7.18q0-2.68-1.26-2.68-1.3,0-1.3,2.68v3.56q0,2.68,1.3,2.68Q25.83-.94,25.83-3.62Zm6.96-9.94a1.471,1.471,0,0,0-.76-.2q-.92,0-.92,2.56v.4h1.26v1.24H31.11V0H29.59V-9.56h-.86V-10.8h.86v-.1a6.4,6.4,0,0,1,.6-3.29,1.9,1.9,0,0,1,1.68-.91,3.116,3.116,0,0,1,1.24.24Zm4.32,0a1.471,1.471,0,0,0-.76-.2q-.92,0-.92,2.56v.4h1.26v1.24H35.43V0H33.91V-9.56h-.86V-10.8h.86v-.1a6.4,6.4,0,0,1,.6-3.29,1.9,1.9,0,0,1,1.68-.91,3.116,3.116,0,0,1,1.24.24ZM38.25,0V-10.8h1.54V0Zm-.06-12.92V-14.8h1.66v1.88Zm9.22,9.78a4.531,4.531,0,0,1-.86,2.69A2.486,2.486,0,0,1,44.64.3a2.342,2.342,0,0,1-1.91-.85,4.725,4.725,0,0,1-.7-2.95V-6.9a5.633,5.633,0,0,1,.7-3.29,2.28,2.28,0,0,1,1.91-.91,2.6,2.6,0,0,1,1.89.66,3.715,3.715,0,0,1,.82,2.38l-1.4.38q-.08-2.18-1.22-2.18a.959.959,0,0,0-.88.52,5.017,5.017,0,0,0-.3,2.16v3.82a3.977,3.977,0,0,0,.31,1.9.988.988,0,0,0,.89.5,1.016,1.016,0,0,0,.9-.49,4.676,4.676,0,0,0,.46-1.89ZM49.23,0V-10.8h1.54V0Zm-.06-12.92V-14.8h1.66v1.88Zm3.76,9.58a4.3,4.3,0,0,1,.56-2.59,1.942,1.942,0,0,1,1.6-.69,1.939,1.939,0,0,1,1.64.8v-2.1q0-1.92-1.2-1.92a2.535,2.535,0,0,0-1.94,1.18l-.54-1.12a3.828,3.828,0,0,1,1.17-.94,3.04,3.04,0,0,1,1.45-.38q2.6,0,2.6,3.52V0h-.94l-.32-1.3a2.212,2.212,0,0,1-.73,1.2,1.815,1.815,0,0,1-1.15.4,1.988,1.988,0,0,1-1.64-.69,4.3,4.3,0,0,1-.56-2.59ZM55.45-.96a1.093,1.093,0,0,0,.91-.42,2.725,2.725,0,0,0,.37-1.52v-.54a3.146,3.146,0,0,0-.37-1.64,1.059,1.059,0,0,0-.91-.46q-1,0-1,1.9v.78Q54.45-.96,55.45-.96Zm5.2.96V-14.8h1.54V0Zm10.5-2.42a2.005,2.005,0,0,0-.84-1.74l-1.38-.98a3.388,3.388,0,0,1-1.54-3.02,3.077,3.077,0,0,1,.69-2.28,2.593,2.593,0,0,1,1.87-.66,2.582,2.582,0,0,1,1.84.62,3.476,3.476,0,0,1,.8,2.26l-1.38.28q-.1-1.94-1.23-1.94T68.85-8.3a2.207,2.207,0,0,0,.84,1.9l1.32.92a6.764,6.764,0,0,1,.79.61,2.686,2.686,0,0,1,.56.9,3.708,3.708,0,0,1,.27,1.47,2.768,2.768,0,0,1-.72,2.17A2.858,2.858,0,0,1,69.96.3a2.548,2.548,0,0,1-1.93-.73A4.25,4.25,0,0,1,67.17-3l1.42-.26A4.1,4.1,0,0,0,69-1.44a1.026,1.026,0,0,0,.91.52Q71.15-.92,71.15-2.42ZM74.71,0V-10.8h1.54V0Zm-.06-12.92V-14.8h1.66v1.88Zm3.26,3.36V-10.8h1.06l.54-2.66h.92v2.66h1.42v1.24H80.43v7.52q0,1.06.58,1.06a1.34,1.34,0,0,0,.8-.32l.3,1.18a2.631,2.631,0,0,1-1.4.42q-1.8,0-1.8-2.66v-7.2ZM88.85-2.8a3.844,3.844,0,0,1-.82,2.42A2.668,2.668,0,0,1,86.06.3a2.5,2.5,0,0,1-2.04-.91,5.333,5.333,0,0,1-.75-3.29v-3a5.333,5.333,0,0,1,.75-3.29,2.581,2.581,0,0,1,2.11-.91,2.45,2.45,0,0,1,2.06.9,5.628,5.628,0,0,1,.7,3.3v2.14h-4.1v1.14q0,2.68,1.28,2.68a1.143,1.143,0,0,0,.96-.44,3.516,3.516,0,0,0,.48-1.64ZM84.79-7.18v1.14h2.56V-7.18q0-2.68-1.26-2.68Q84.79-9.86,84.79-7.18Z" transform="translate(683 7323)"/>
    <path id="パス_1687_-_アウトライン" data-name="パス 1687 - アウトライン" d="M-2.01,4.1H-4.47V-11.3h1.838l.147.638A2.258,2.258,0,0,1-.59-11.6a2.3,2.3,0,0,1,2.045,1.136A7.123,7.123,0,0,1,2.09-6.9v3A7.123,7.123,0,0,1,1.455-.336,2.3,2.3,0,0,1-.59.8,2.183,2.183,0,0,1-2.01.314Zm-1.46-1h.46V-1.58l.47-.057a6.577,6.577,0,0,1-.228-.815A14.1,14.1,0,0,1-3.01-5.4v-.286a12.44,12.44,0,0,1,.275-2.775q.067-.267.139-.488h-.522L-3.428-10.3H-3.47ZM-1.413-.494A1.166,1.166,0,0,0-.59-.2a1.3,1.3,0,0,0,1.2-.664A6.142,6.142,0,0,0,1.09-3.9v-3A6.143,6.143,0,0,0,.605-9.936,1.3,1.3,0,0,0-.59-10.6a1.268,1.268,0,0,0-.912.332A1.736,1.736,0,0,1-.93-10.36a1.336,1.336,0,0,1,1.255.923A5.377,5.377,0,0,1,.63-7.38v3.96A5.294,5.294,0,0,1,.318-1.36,1.352,1.352,0,0,1-.95-.44,1.911,1.911,0,0,1-1.413-.494Zm-.6-5.184V-5.4a13.368,13.368,0,0,0,.218,2.732A2.412,2.412,0,0,0-1.4-1.589.594.594,0,0,0-.95-1.44c.074,0,.212,0,.352-.32A4.325,4.325,0,0,0-.37-3.42V-7.38A4.407,4.407,0,0,0-.595-9.044C-.73-9.36-.86-9.36-.93-9.36a.611.611,0,0,0-.435.151,2.161,2.161,0,0,0-.4.99A11.675,11.675,0,0,0-2.01-5.678ZM86.06.8A2.993,2.993,0,0,1,83.634-.292,5.708,5.708,0,0,1,82.77-3.9v-3a5.708,5.708,0,0,1,.864-3.608,3.07,3.07,0,0,1,2.5-1.092,2.936,2.936,0,0,1,2.455,1.093A5.991,5.991,0,0,1,89.39-6.9v2.64h-4.1v.64c0,.994.135,2.18.78,2.18a.637.637,0,0,0,.564-.246,2.982,2.982,0,0,0,.379-1.392l.061-.52,2.311.379-.037.459a4.252,4.252,0,0,1-.965,2.733A3.155,3.155,0,0,1,86.06.8Zm.07-11.4a2.089,2.089,0,0,0-1.724.728A4.754,4.754,0,0,0,83.77-6.9v3a4.754,4.754,0,0,0,.636,2.972A2.01,2.01,0,0,0,86.06-.2a2.179,2.179,0,0,0,1.616-.534,2.947,2.947,0,0,0,.626-1.65l-.371-.061a3.167,3.167,0,0,1-.506,1.37A1.645,1.645,0,0,1,86.07-.44a1.5,1.5,0,0,1-1.411-.955A5.267,5.267,0,0,1,84.29-3.62V-5.26h4.1V-6.9A5.034,5.034,0,0,0,87.8-9.893,1.962,1.962,0,0,0,86.13-10.6ZM80.71.8a2.026,2.026,0,0,1-1.764-.885A4.012,4.012,0,0,1,78.41-2.36v-6.7h-1V-11.3h1.151l.54-2.66H80.93v2.66h1.42v2.24H80.93v7.02a1.176,1.176,0,0,0,.086.56.888.888,0,0,0,.491-.218l.6-.458L82.685.113l-.312.193A3.135,3.135,0,0,1,80.71.8Zm-2.3-10.86h1v7.7c0,2.16.944,2.16,1.3,2.16a2,2,0,0,0,.819-.177l-.046-.182a1.5,1.5,0,0,1-.473.078c-.325,0-1.08-.152-1.08-1.56v-8.02h1.42v-.24H79.93v-2.66h-.011l-.54,2.66H78.41ZM69.96.8a3.038,3.038,0,0,1-2.291-.884,4.655,4.655,0,0,1-1-2.873l-.039-.453,2.422-.443.035.563a3.551,3.551,0,0,0,.333,1.583.532.532,0,0,0,.488.288c.358,0,.74-.077.74-1a1.5,1.5,0,0,0-.631-1.333l-1.372-.975A3.875,3.875,0,0,1,66.89-8.16a3.5,3.5,0,0,1,.844-2.641,3.085,3.085,0,0,1,2.216-.8,3.072,3.072,0,0,1,2.182.756,3.887,3.887,0,0,1,.956,2.582l.038.444-2.386.484-.03-.58c-.076-1.466-.569-1.466-.731-1.466-.22,0-.63,0-.63,1.08a1.725,1.725,0,0,0,.632,1.494l1.312.914a7.169,7.169,0,0,1,.847.656,3.124,3.124,0,0,1,.679,1.069A4.219,4.219,0,0,1,73.13-2.5,3.239,3.239,0,0,1,72.239.046,3.352,3.352,0,0,1,69.96.8ZM67.718-2.592a3.294,3.294,0,0,0,.673,1.816A2.054,2.054,0,0,0,69.96-.2a2.361,2.361,0,0,0,1.621-.506A2.335,2.335,0,0,0,72.13-2.5a3.233,3.233,0,0,0-.23-1.273,2.176,2.176,0,0,0-.441-.731,6.319,6.319,0,0,0-.73-.562l0,0L69.393-6A2.689,2.689,0,0,1,68.35-8.3c0-1.877,1.14-2.08,1.63-2.08a1.471,1.471,0,0,1,1.295.717,2.878,2.878,0,0,1,.379,1.123l.388-.079a2.6,2.6,0,0,0-.593-1.5,2.09,2.09,0,0,0-1.5-.484,2.1,2.1,0,0,0-1.524.521A2.651,2.651,0,0,0,67.89-8.16a2.893,2.893,0,0,0,1.316,2.6l.013.009,1.38.98A2.489,2.489,0,0,1,71.65-2.42c0,1.805-1.217,2-1.74,2a1.522,1.522,0,0,1-1.332-.752,3.644,3.644,0,0,1-.437-1.5ZM55.13.8A2.472,2.472,0,0,1,53.1-.075,4.678,4.678,0,0,1,52.43-2.98v-.36A4.678,4.678,0,0,1,53.1-6.245,2.427,2.427,0,0,1,55.09-7.12a2.6,2.6,0,0,1,1.14.244V-7.92c0-1.42-.509-1.42-.7-1.42a2.09,2.09,0,0,0-1.546.987l-.5.635L52.461-9.851l.2-.247a4.342,4.342,0,0,1,1.32-1.063A3.548,3.548,0,0,1,55.67-11.6c1.414,0,3.1.7,3.1,4.02V.5H56.938L56.833.071a2.226,2.226,0,0,1-.244.223A2.312,2.312,0,0,1,55.13.8Zm-.04-6.92a1.456,1.456,0,0,0-1.212.505A3.758,3.758,0,0,0,53.43-3.34v.36a3.758,3.758,0,0,0,.448,2.275A1.5,1.5,0,0,0,55.13-.2a1.317,1.317,0,0,0,.841-.293q.039-.031.077-.066a1.77,1.77,0,0,1-.6.1A1.306,1.306,0,0,1,54.258-1.2,3.589,3.589,0,0,1,53.95-2.86v-.78A3.589,3.589,0,0,1,54.258-5.3,1.306,1.306,0,0,1,55.45-6.04a1.833,1.833,0,0,1,.22.013A1.688,1.688,0,0,0,55.09-6.12ZM57.722-.5h.048V-7.58c0-2.707-1.2-3.02-2.1-3.02a2.525,2.525,0,0,0-1.214.321,3.506,3.506,0,0,0-.809.586l.072.148a2.634,2.634,0,0,1,1.811-.8c.635,0,1.7.314,1.7,2.42v3.6l-.107-.142a6.177,6.177,0,0,1,.106,1.005v.575q-.006.161-.018.31ZM55.45-5.04c-.228,0-.5.243-.5,1.4v.78c0,.639.087,1.4.5,1.4a.6.6,0,0,0,.517-.229,2.211,2.211,0,0,0,.263-1.22v-.523a2.613,2.613,0,0,0-.276-1.357A.56.56,0,0,0,55.45-5.04ZM44.64.8a2.831,2.831,0,0,1-2.3-1.032A5.117,5.117,0,0,1,41.53-3.5V-6.9a6,6,0,0,1,.8-3.595A2.767,2.767,0,0,1,44.64-11.6a3.09,3.09,0,0,1,2.238.8,4.124,4.124,0,0,1,.97,2.7l.034.414-2.409.654-.023-.629c-.041-1.127-.284-1.7-.72-1.7a.465.465,0,0,0-.447.27,4.417,4.417,0,0,0-.233,1.91v3.82a3.429,3.429,0,0,0,.235,1.637.49.49,0,0,0,.465.263.521.521,0,0,0,.481-.263,4.092,4.092,0,0,0,.381-1.666l.052-.525,2.282.351-.038.464a4.927,4.927,0,0,1-.993,2.99A2.976,2.976,0,0,1,44.64.8Zm0-11.4a1.79,1.79,0,0,0-1.514.715,5.04,5.04,0,0,0-.6,2.985v3.4a4.386,4.386,0,0,0,.586,2.632A1.851,1.851,0,0,0,44.64-.2a1.992,1.992,0,0,0,1.544-.591,3.451,3.451,0,0,0,.679-1.927l-.318-.049a4.011,4.011,0,0,1-.476,1.591A1.512,1.512,0,0,1,44.75-.46,1.483,1.483,0,0,1,43.435-1.2,4.272,4.272,0,0,1,43.05-3.36V-7.18a5.238,5.238,0,0,1,.367-2.41,1.451,1.451,0,0,1,1.313-.77c.664,0,1.457.372,1.67,2.04l.407-.111a2.874,2.874,0,0,0-.626-1.65A2.107,2.107,0,0,0,44.64-10.6ZM24.56.8A3,3,0,0,1,22.09-.3a5.819,5.819,0,0,1-.84-3.6v-3a5.819,5.819,0,0,1,.84-3.6,3,3,0,0,1,2.47-1.1,3,3,0,0,1,2.47,1.1,5.819,5.819,0,0,1,.84,3.6v3a5.819,5.819,0,0,1-.84,3.6A3,3,0,0,1,24.56.8Zm0-11.4a2.022,2.022,0,0,0-1.69.723A4.863,4.863,0,0,0,22.25-6.9v3a4.863,4.863,0,0,0,.62,2.977A2.022,2.022,0,0,0,24.56-.2a2.022,2.022,0,0,0,1.69-.723A4.863,4.863,0,0,0,26.87-3.9v-3a4.863,4.863,0,0,0-.62-2.977A2.022,2.022,0,0,0,24.56-10.6ZM5.67.8A2.472,2.472,0,0,1,3.642-.075,4.678,4.678,0,0,1,2.97-2.98v-.36a4.678,4.678,0,0,1,.672-2.905A2.427,2.427,0,0,1,5.63-7.12a2.6,2.6,0,0,1,1.14.244V-7.92c0-1.42-.509-1.42-.7-1.42a2.09,2.09,0,0,0-1.546.987l-.5.635L3-9.851l.2-.247a4.342,4.342,0,0,1,1.32-1.063A3.548,3.548,0,0,1,6.21-11.6c1.414,0,3.1.7,3.1,4.02V.5H7.478L7.373.071a2.225,2.225,0,0,1-.244.223A2.312,2.312,0,0,1,5.67.8ZM5.63-6.12a1.456,1.456,0,0,0-1.212.505A3.758,3.758,0,0,0,3.97-3.34v.36A3.757,3.757,0,0,0,4.418-.705,1.5,1.5,0,0,0,5.67-.2a1.317,1.317,0,0,0,.841-.293q.039-.031.077-.066a1.77,1.77,0,0,1-.6.1A1.306,1.306,0,0,1,4.8-1.2,3.589,3.589,0,0,1,4.49-2.86v-.78A3.589,3.589,0,0,1,4.8-5.3,1.306,1.306,0,0,1,5.99-6.04a1.833,1.833,0,0,1,.22.013A1.688,1.688,0,0,0,5.63-6.12ZM8.262-.5H8.31V-7.58c0-2.707-1.2-3.02-2.1-3.02A2.525,2.525,0,0,0,5-10.279a3.506,3.506,0,0,0-.809.586l.072.148a2.634,2.634,0,0,1,1.811-.8c.635,0,1.7.314,1.7,2.42v3.6l-.107-.142A6.179,6.179,0,0,1,7.77-3.457v.575q-.006.161-.018.31ZM5.99-5.04c-.228,0-.5.243-.5,1.4v.78c0,.639.087,1.4.5,1.4a.6.6,0,0,0,.517-.229,2.211,2.211,0,0,0,.263-1.22v-.523a2.614,2.614,0,0,0-.276-1.357A.56.56,0,0,0,5.99-5.04ZM-9.49.8a2.472,2.472,0,0,1-2.028-.875A4.678,4.678,0,0,1-12.19-2.98v-.36a4.678,4.678,0,0,1,.672-2.905A2.427,2.427,0,0,1-9.53-7.12a2.6,2.6,0,0,1,1.14.244V-7.92c0-1.42-.509-1.42-.7-1.42a2.09,2.09,0,0,0-1.546.987l-.5.635-1.028-2.133.2-.247a4.342,4.342,0,0,1,1.32-1.063A3.548,3.548,0,0,1-8.95-11.6c1.414,0,3.1.7,3.1,4.02V.5H-7.682L-7.787.071a2.225,2.225,0,0,1-.244.223A2.312,2.312,0,0,1-9.49.8Zm-.04-6.92a1.456,1.456,0,0,0-1.212.505A3.758,3.758,0,0,0-11.19-3.34v.36a3.757,3.757,0,0,0,.448,2.275A1.5,1.5,0,0,0-9.49-.2a1.317,1.317,0,0,0,.841-.293q.039-.031.077-.066a1.771,1.771,0,0,1-.6.1A1.306,1.306,0,0,1-10.362-1.2,3.589,3.589,0,0,1-10.67-2.86v-.78A3.589,3.589,0,0,1-10.362-5.3,1.306,1.306,0,0,1-9.17-6.04a1.833,1.833,0,0,1,.22.013A1.688,1.688,0,0,0-9.53-6.12ZM-6.9-.5h.048V-7.58c0-2.707-1.2-3.02-2.1-3.02a2.525,2.525,0,0,0-1.214.321,3.506,3.506,0,0,0-.809.586l.072.148a2.634,2.634,0,0,1,1.811-.8c.635,0,1.7.314,1.7,2.42v3.6L-7.5-4.462A6.179,6.179,0,0,1-7.39-3.457v.575q-.006.161-.018.31ZM-9.17-5.04c-.228,0-.5.243-.5,1.4v.78c0,.639.087,1.4.5,1.4a.6.6,0,0,0,.517-.229,2.211,2.211,0,0,0,.263-1.22v-.523a2.614,2.614,0,0,0-.276-1.357A.56.56,0,0,0-9.17-5.04ZM-16.07.8A2.563,2.563,0,0,1-17.862.055a3.519,3.519,0,0,1-.926-2.373l-.039-.472,2.431-.338.045.525a2.615,2.615,0,0,0,.214,1.044c.063.1.106.1.148.1h.013s.247-.184.247-1.359V-14.5h2.58V-3.14C-13.15.116-14.738.8-16.07.8Zm-1.664-2.732a2.2,2.2,0,0,0,.556,1.258A1.575,1.575,0,0,0-16.07-.2c.824,0,1.92-.3,1.92-2.94V-13.5h-.58V-2.82a4.3,4.3,0,0,1-.227,1.584A1.092,1.092,0,0,1-15.99-.46a1.149,1.149,0,0,1-.992-.562,2.554,2.554,0,0,1-.306-.973ZM-85.83.8a3.277,3.277,0,0,1-2.6-1.092,6.157,6.157,0,0,1-1.1-3.57l-.035-.453,2.506-.434.027.566a5.161,5.161,0,0,0,.425,2.2.766.766,0,0,0,.715.467c.351,0,1.08,0,1.08-1.62A2.468,2.468,0,0,0-85.695-5.2l-1.589-1.172A4.833,4.833,0,0,1-89.29-10.56a4.6,4.6,0,0,1,.928-3.255A3.332,3.332,0,0,1-85.84-14.8a3.349,3.349,0,0,1,2.486.919,4.883,4.883,0,0,1,1.063,3.1l.034.433-2.534.567-.019-.6c-.065-2.076-.761-2.076-.99-2.076-.272,0-.91,0-.91,1.68a4.361,4.361,0,0,0,.182,1.395,1.933,1.933,0,0,0,.644.85l1.569,1.172a6.711,6.711,0,0,1,.968.82,4.063,4.063,0,0,1,.752,1.311A5.627,5.627,0,0,1-82.25-3.18a4.02,4.02,0,0,1-.988,3.064A3.648,3.648,0,0,1-85.83.8Zm-2.66-4.286a4.776,4.776,0,0,0,.817,2.538A2.292,2.292,0,0,0-85.83-.2a2.653,2.653,0,0,0,1.908-.644A3.178,3.178,0,0,0-83.25-3.18a4.643,4.643,0,0,0-.275-1.687,3.1,3.1,0,0,0-.548-.989,5.741,5.741,0,0,0-.827-.7l-.009-.006L-86.5-7.75a2.916,2.916,0,0,1-.97-1.305,5.248,5.248,0,0,1-.238-1.725c0-2.332,1.2-2.68,1.91-2.68.791,0,1.734.442,1.949,2.445l.519-.116a3.621,3.621,0,0,0-.734-2.048A2.363,2.363,0,0,0-85.84-13.8a2.343,2.343,0,0,0-1.8.675,3.789,3.789,0,0,0-.652,2.565A3.837,3.837,0,0,0-86.7-7.187l.007.005,1.615,1.191A3.45,3.45,0,0,1-83.81-3.14c0,2.28-1.3,2.62-2.08,2.62a1.757,1.757,0,0,1-1.585-.973,5.231,5.231,0,0,1-.517-2.08ZM76.75.5H74.21V-11.3h2.54Zm-1.54-1h.54v-9.8h-.54ZM62.69.5H60.15V-15.3h2.54Zm-1.54-1h.54V-14.3h-.54ZM51.27.5H48.73V-11.3h2.54Zm-1.54-1h.54v-9.8h-.54ZM40.29.5H37.75V-11.3h2.54Zm-1.54-1h.54v-9.8h-.54ZM35.93.5H33.41V-9.06h-1.8V.5H29.09V-9.06h-.86V-11.3h.864a6.184,6.184,0,0,1,.678-3.165,2.414,2.414,0,0,1,2.1-1.135,3.627,3.627,0,0,1,1.437.28l.39.167-.582,2.364-.579-.34a.971.971,0,0,0-.507-.131c-.107,0-.408.363-.42,1.96h1.8a6.184,6.184,0,0,1,.678-3.165,2.414,2.414,0,0,1,2.1-1.135,3.627,3.627,0,0,1,1.437.28l.063.027V-15.3h2.66v2.88H37.69v-1.4l-.255,1.036-.579-.34a.971.971,0,0,0-.507-.131c-.107,0-.408.363-.42,1.96h1.26v2.24H35.93Zm-1.52-1h.52v-9.56h1.26v-.24H34.93v-.9c0-.757,0-3.06,1.42-3.06a2.1,2.1,0,0,1,.408.039l.076-.309a2.864,2.864,0,0,0-.644-.07,1.4,1.4,0,0,0-1.263.685A5.776,5.776,0,0,0,34.41-10.9v.6h-.86v.24h.86Zm-4.32,0h.52v-9.56h1.26v-.24H30.61v-.9c0-.757,0-3.06,1.42-3.06a2.1,2.1,0,0,1,.408.039l.076-.309a2.864,2.864,0,0,0-.644-.07,1.4,1.4,0,0,0-1.263.685A5.776,5.776,0,0,0,30.09-10.9v.6h-.86v.24h.86Zm8.6-12.92h.66v-.88h-.66ZM17.27.5H14.73V-7.36a5.01,5.01,0,0,0-.211-1.693c-.121-.307-.229-.307-.269-.307-.1,0-.387,0-.649.737a10.092,10.092,0,0,0-.371,3.047V.5H10.69V-11.3h1.837l.144.621A2.358,2.358,0,0,1,14.63-11.6a2.256,2.256,0,0,1,2.019,1.163A7.476,7.476,0,0,1,17.27-6.82Zm-1.54-1h.54V-6.82a6.486,6.486,0,0,0-.479-3.1A1.255,1.255,0,0,0,14.63-10.6a1.378,1.378,0,0,0-1.061.413,1.392,1.392,0,0,1,.681-.173,1.273,1.273,0,0,1,1.2.943,5.828,5.828,0,0,1,.28,2.057Zm-4.04,0h.54V-5.58a10.848,10.848,0,0,1,.429-3.377l.006-.017-.622.007-.31-1.333H11.69ZM-22.13.5h-2.525L-27.05-7.007V.5h-2.56v-15h2.526l2.394,7.521V-14.5h2.56Zm-1.795-1h.795v-13h-.56v9.74l-.976.152L-27.816-13.5h-.794v13h.56v-9.72l.976-.152ZM-30.71.5h-6.08v-15h6.02v2.28h-3.42v4.1h3.12v2.28h-3.12v4.06h3.48Zm-5.08-1h4.08V-.78h-3.48V-6.84h3.12v-.28h-3.12v-6.1h3.42v-.28h-4.02Zm-2.1,1h-6.08v-15h6.02v2.28h-3.42v4.1h3.12v2.28h-3.12v4.06h3.48Zm-5.08-1h4.08V-.78h-3.48V-6.84h3.12v-.28h-3.12v-6.1h3.42v-.28h-4.02Zm-3.46,1h-2.58V-12.22h-1.94V-14.5h6.46v2.28h-1.94Zm-1.58-1h.58V-13.22h1.94v-.28h-4.46v.28h1.94Zm-3.46,1H-54L-56.39-7.007V.5h-2.56v-15h2.526l2.394,7.521V-14.5h2.56Zm-1.795-1h.795v-13h-.56v9.74l-.976.152L-57.156-13.5h-.794v13h.56v-9.72l.976-.152ZM-60.05.5h-6.08v-15h6.02v2.28h-3.42v4.1h3.12v2.28h-3.12v4.06h3.48Zm-5.08-1h4.08V-.78h-3.48V-6.84h3.12v-.28h-3.12v-6.1h3.42v-.28h-4.02Zm-4.264,1h-2.831l-2.786-15h2.623l1.578,9.218,1.578-9.218h2.623Zm-2-1h1.169l2.414-13h-.577L-70.317-2.236H-71.3L-73.232-13.5h-.577ZM-75.07.5h-6.08v-15h6.02v2.28h-3.42v4.1h3.12v2.28h-3.12v4.06h3.48Zm-5.08-1h4.08V-.78h-3.48V-6.84h3.12v-.28h-3.12v-6.1h3.42v-.28h-4.02ZM24.57-.44a1.521,1.521,0,0,1-1.425-.952A5.2,5.2,0,0,1,22.77-3.62V-7.18a5.2,5.2,0,0,1,.375-2.228,1.521,1.521,0,0,1,1.425-.952,1.486,1.486,0,0,1,1.4.957A5.335,5.335,0,0,1,26.33-7.18v3.56A5.335,5.335,0,0,1,25.967-1.4,1.486,1.486,0,0,1,24.57-.44Zm0-8.92c-.661,0-.8,1.185-.8,2.18v3.56c0,.994.139,2.18.8,2.18s.76-1.366.76-2.18V-7.18C25.33-7.994,25.231-9.36,24.57-9.36ZM87.85-5.54H84.29V-7.18a5.2,5.2,0,0,1,.375-2.228,1.521,1.521,0,0,1,1.425-.952,1.486,1.486,0,0,1,1.4.957A5.335,5.335,0,0,1,87.85-7.18Zm-2.56-1h1.56v-.64c0-.814-.1-2.18-.76-2.18s-.8,1.185-.8,2.18Zm-8.48-5.88H74.15V-15.3h2.66Zm-1.66-1h.66v-.88h-.66Zm-23.82,1H48.67V-15.3h2.66Zm-1.66-1h.66v-.88h-.66Z" transform="translate(683 7323)" fill="rgba(0,0,0,0)"/>
    <path id="パス_76" data-name="パス 76" d="M5771.708,906.707l-1.414-1.414,3.293-3.293-3.293-3.293,1.414-1.414,4.293,4.293V902a1.148,1.148,0,0,1-.465.879Z" transform="translate(-4981 6415.323)"/>
  </g>
</svg>
