<svg xmlns="http://www.w3.org/2000/svg" width="302.227" height="45.703" viewBox="0 0 302.227 45.703">
  <path id="パス_37" data-name="パス 37" d="M-112.764-32.988h-1.055q-.879-5.273-3.955-7.822t-8.877-2.549a19.059,19.059,0,0,0-7.588,1.494,17.62,17.62,0,0,0-6.006,4.189,19.294,19.294,0,0,0-3.926,6.387,22.708,22.708,0,0,0-1.406,8.145,24.586,24.586,0,0,0,1.553,8.936,21,21,0,0,0,4.248,6.885A18.629,18.629,0,0,0-133.447-2.9a19.618,19.618,0,0,0,7.793,1.553q5.273,0,8.027-3.076a15.624,15.624,0,0,0,3.633-7.646h1.348L-114.17-2.4a11.186,11.186,0,0,1-2.373,1.055,33.3,33.3,0,0,1-3.369.938q-1.875.41-3.721.674a23.329,23.329,0,0,1-3.252.264,25.27,25.27,0,0,1-9.287-1.641,20.454,20.454,0,0,1-7.236-4.746,20.919,20.919,0,0,1-4.717-7.383,26.883,26.883,0,0,1-1.67-9.727,20.831,20.831,0,0,1,1.9-8.936,22.557,22.557,0,0,1,5.127-7.061,23.362,23.362,0,0,1,7.266-4.57,22.525,22.525,0,0,1,8.438-1.641,28.543,28.543,0,0,1,7,.879,52.786,52.786,0,0,1,6.709,2.168Zm49.512,10.43a23.721,23.721,0,0,1-1.582,8.5A23.6,23.6,0,0,1-69.287-6.68a21.16,21.16,0,0,1-6.8,5.244A19.483,19.483,0,0,1-84.814.527a19.385,19.385,0,0,1-8.291-1.816,21.482,21.482,0,0,1-6.768-4.922,23.072,23.072,0,0,1-4.6-7.207,22.775,22.775,0,0,1-1.67-8.672,23.88,23.88,0,0,1,1.553-8.467,24.583,24.583,0,0,1,4.365-7.412A22.758,22.758,0,0,1-93.4-43.184a19.193,19.193,0,0,1,8.76-1.992,19,19,0,0,1,8.232,1.846,22.6,22.6,0,0,1,6.826,4.951,24.565,24.565,0,0,1,4.6,7.207A21.956,21.956,0,0,1-63.252-22.559ZM-67.939-20.8a29.565,29.565,0,0,0-1.055-7.559,25.2,25.2,0,0,0-3.223-7.324,18,18,0,0,0-5.42-5.508A13.849,13.849,0,0,0-85.4-43.359a14.653,14.653,0,0,0-6.592,1.465,15.8,15.8,0,0,0-5.127,4.043A18.9,18.9,0,0,0-100.4-31.7a24.884,24.884,0,0,0-1.172,7.793,29.765,29.765,0,0,0,1.055,7.617,26.157,26.157,0,0,0,3.164,7.324A18.448,18.448,0,0,0-91.9-3.486a13.952,13.952,0,0,0,7.793,2.139,15.84,15.84,0,0,0,6.885-1.436A14.157,14.157,0,0,0-72.158-6.8a18.293,18.293,0,0,0,3.135-6.152A26.962,26.962,0,0,0-67.939-20.8ZM-15.791.176h-1.348L-48.545-38.2V-8.262a17.518,17.518,0,0,0,.264,3.428,3.464,3.464,0,0,0,.967,1.9,3.4,3.4,0,0,0,1.816.82,18.563,18.563,0,0,0,2.813.176V-.469q-1.523,0-3.428-.029t-3.838-.029h-3.867q-1.875,0-3.34.059V-1.934a20.124,20.124,0,0,0,3.105-.205A4.109,4.109,0,0,0-52-2.988,3.531,3.531,0,0,0-50.83-4.863a12.627,12.627,0,0,0,.352-3.34V-36.738q0-3.457-1.875-4.717t-5.859-1.26V-44.18a12.4,12.4,0,0,0,1.934.117H-53.7q1.348,0,2.549-.029t1.846-.088L-17.725-6.445V-36.8a13.564,13.564,0,0,0-.264-2.959,3.61,3.61,0,0,0-.908-1.787,3.457,3.457,0,0,0-1.816-.879,18.78,18.78,0,0,0-2.988-.293v-1.523q1.113.059,3.047.088t3.926.029q2.051,0,3.926-.029t2.93-.088v1.523a18.216,18.216,0,0,0-3.076.205,3.269,3.269,0,0,0-1.787.85,3.269,3.269,0,0,0-.85,1.787,18.215,18.215,0,0,0-.205,3.076ZM32.256-32.988H31.2q-.879-5.273-3.955-7.822t-8.877-2.549a19.059,19.059,0,0,0-7.588,1.494,17.62,17.62,0,0,0-6.006,4.189A19.294,19.294,0,0,0,.85-31.289,22.708,22.708,0,0,0-.557-23.145,24.586,24.586,0,0,0,1-14.209,21,21,0,0,0,5.244-7.324,18.629,18.629,0,0,0,11.572-2.9a19.618,19.618,0,0,0,7.793,1.553q5.273,0,8.027-3.076a15.624,15.624,0,0,0,3.633-7.646h1.348L30.85-2.4a11.186,11.186,0,0,1-2.373,1.055,33.3,33.3,0,0,1-3.369.938Q23.232,0,21.387.264a23.329,23.329,0,0,1-3.252.264A25.27,25.27,0,0,1,8.848-1.113,20.454,20.454,0,0,1,1.611-5.859a20.919,20.919,0,0,1-4.717-7.383,26.883,26.883,0,0,1-1.67-9.727,20.831,20.831,0,0,1,1.9-8.936,22.557,22.557,0,0,1,5.127-7.061,23.362,23.362,0,0,1,7.266-4.57,22.525,22.525,0,0,1,8.438-1.641,28.543,28.543,0,0,1,7,.879,52.786,52.786,0,0,1,6.709,2.168ZM47.08-24.375h8.848a4.762,4.762,0,0,0,3.6-1.113q1.025-1.113,1.025-4.277h1.406v13.887H60.557a18.313,18.313,0,0,0-.205-3.047,3.9,3.9,0,0,0-.732-1.816,2.521,2.521,0,0,0-1.436-.937,9.487,9.487,0,0,0-2.314-.234H47.08V-8.086a13.9,13.9,0,0,0,.264,3.018A2.718,2.718,0,0,0,48.486-3.34a4.751,4.751,0,0,0,2.314.85,29.779,29.779,0,0,0,3.9.205H58.74a20.027,20.027,0,0,0,4.1-.352A6.605,6.605,0,0,0,65.6-3.867,7.027,7.027,0,0,0,67.471-6.24a27.882,27.882,0,0,0,1.523-3.779h1.523q-.41,1.172-.791,2.373t-.732,2.373q-.352,1.23-.645,2.432T67.822-.469Q60.146-.586,52.295-.586T37.236-.469V-1.934q3.691,0,4.8-1.23t1.113-4.922v-29a13.152,13.152,0,0,0-.264-2.93,3.043,3.043,0,0,0-.967-1.7,3.862,3.862,0,0,0-1.787-.732,16.9,16.9,0,0,0-2.9-.205V-44.18Q44.268-44,51.709-44t14.063-.176V-34.8h-1.23a21.7,21.7,0,0,0-.674-3.9,4.57,4.57,0,0,0-1.436-2.314,5.59,5.59,0,0,0-2.578-1.055,25.222,25.222,0,0,0-4.277-.293h-8.5Zm36.738,3.164V-8.262a19.323,19.323,0,0,0,.205,3.135,3.963,3.963,0,0,0,.791,1.9,3.536,3.536,0,0,0,1.758,1,12.185,12.185,0,0,0,2.988.293V-.469q-1.172-.059-3.281-.088T81.885-.586q-2.285,0-4.424.029t-3.252.088V-1.875a15.446,15.446,0,0,0,2.783-.205,3.219,3.219,0,0,0,1.729-.85,4.084,4.084,0,0,0,.908-1.963,17.131,17.131,0,0,0,.264-3.369V-36.973a13.152,13.152,0,0,0-.264-2.93,3.593,3.593,0,0,0-.908-1.758,3.494,3.494,0,0,0-1.758-.791,19.375,19.375,0,0,0-2.754-.264v-1.523q1.465.059,3.691.088t4.629.029q2.4,0,4.688-.029t3.867-.088A16.492,16.492,0,0,1,97.676-43.1a12.258,12.258,0,0,1,4.131,2.783,10.421,10.421,0,0,1,2.08,3.6,11.425,11.425,0,0,1,.615,3.486,10.177,10.177,0,0,1-.732,3.9,11.34,11.34,0,0,1-1.963,3.193,12.024,12.024,0,0,1-2.812,2.461,12.261,12.261,0,0,1-3.281,1.465q1.113,1.934,2.607,4.189t3.076,4.424q1.582,2.227,3.076,4.189t2.607,3.252a15.994,15.994,0,0,0,3.105,2.988,6.519,6.519,0,0,0,3.926,1.23V-.469Q112-.586,109.922-.586t-3.955.117q-1.7-2.168-3.574-4.863t-3.75-5.449q-1.934-2.812-3.721-5.508T91.67-21.211Zm0-2.168a10.608,10.608,0,0,0,2.168.205q1.465.029,2.344.029a15.793,15.793,0,0,0,5.537-.85,10.15,10.15,0,0,0,3.662-2.256,7.892,7.892,0,0,0,2.021-3.076,10.332,10.332,0,0,0,.615-3.486,11.271,11.271,0,0,0-.615-3.75,7.662,7.662,0,0,0-1.963-3.047,9.31,9.31,0,0,0-3.516-2.021,16.813,16.813,0,0,0-5.332-.732q-1.348,0-2.725.088t-2.2.205ZM151.9-36.152h-1.582a19.719,19.719,0,0,0-.264-2.812,3.243,3.243,0,0,0-.85-1.758,3.78,3.78,0,0,0-1.934-.967,16.67,16.67,0,0,0-3.34-.264h-8.32V-8.32A17.861,17.861,0,0,0,135.85-5.1a3.867,3.867,0,0,0,.879,1.934,3.362,3.362,0,0,0,1.758.967,12.82,12.82,0,0,0,2.871.264V-.469q-1.523,0-3.545-.029t-4.131-.029h-4.189q-2.021,0-3.486.059V-1.934q3.34,0,4.512-1.23t1.172-5.156V-41.953h-7.148a19.455,19.455,0,0,0-3.545.264,5.527,5.527,0,0,0-2.256.908,4.3,4.3,0,0,0-1.377,1.758,16.179,16.179,0,0,0-.908,2.871h-1.582l.645-8.086q3.809.176,8.613.234t9.785.059q5.039,0,9.844-.059t8.672-.234Z" transform="translate(149.795 45.176)"/>
</svg>
