<svg xmlns="http://www.w3.org/2000/svg" width="459.889" height="46.703" viewBox="0 0 459.889 46.703">
  <g transform="translate(-451.746 -2983.324)">
    <path id="パス_38" data-name="パス 38" d="M-193.682-36.152h-1.582a19.719,19.719,0,0,0-.264-2.812,3.243,3.243,0,0,0-.85-1.758,3.78,3.78,0,0,0-1.934-.967,16.67,16.67,0,0,0-3.34-.264h-8.32V-8.32a17.861,17.861,0,0,0,.234,3.223,3.867,3.867,0,0,0,.879,1.934A3.362,3.362,0,0,0-207.1-2.2a12.82,12.82,0,0,0,2.871.264V-.469q-1.523,0-3.545-.029T-211.9-.527h-4.189q-2.021,0-3.486.059V-1.934q3.34,0,4.512-1.23T-213.9-8.32V-41.953h-7.148a19.455,19.455,0,0,0-3.545.264,5.527,5.527,0,0,0-2.256.908,4.3,4.3,0,0,0-1.377,1.758,16.179,16.179,0,0,0-.908,2.871h-1.582l.645-8.086q3.809.176,8.613.234t9.785.059q5.039,0,9.844-.059t8.672-.234Zm41.074,11.543V-37.148a11.818,11.818,0,0,0-.293-2.959,3.386,3.386,0,0,0-.937-1.67,3.189,3.189,0,0,0-1.787-.732q-1.143-.146-2.783-.205v-1.523q1.23.059,3.4.088t4.453.029q2.344,0,4.395-.029t3.164-.088v1.523a23.844,23.844,0,0,0-2.812.234,3.316,3.316,0,0,0-1.758.762,2.884,2.884,0,0,0-.937,1.67,14.29,14.29,0,0,0-.234,2.9V-8.262a17.861,17.861,0,0,0,.234,3.223,3.867,3.867,0,0,0,.879,1.934,3.2,3.2,0,0,0,1.758.938A14.372,14.372,0,0,0-143-1.934V-.469q-1.113-.059-3.193-.088t-4.365-.029q-2.285,0-4.453.029t-3.4.088V-1.934a11.882,11.882,0,0,0,2.93-.293,3.536,3.536,0,0,0,1.758-1,3.841,3.841,0,0,0,.879-1.9,16.953,16.953,0,0,0,.234-3.135V-22.148h-27.715V-8.262a23.155,23.155,0,0,0,.176,3.164,3.523,3.523,0,0,0,.82,1.934,3.043,3.043,0,0,0,1.7.967,13.489,13.489,0,0,0,2.988.264V-.469q-1.172,0-3.252-.029t-4.365-.029h-4.453q-2.109,0-3.281.059V-1.934q3.516,0,4.629-1.26t1.113-5.068V-36.973a13.489,13.489,0,0,0-.264-2.988,3.232,3.232,0,0,0-.908-1.7,3.088,3.088,0,0,0-1.758-.82,23.844,23.844,0,0,0-2.812-.234v-1.523q1.113.117,3.193.146t4.424.029q2.285,0,4.424-.029t3.311-.146v1.523a19.719,19.719,0,0,0-2.812.264,3.494,3.494,0,0,0-1.758.791,3.41,3.41,0,0,0-.879,1.758,14.745,14.745,0,0,0-.234,2.93v12.363Zm23.613.234h8.848a4.762,4.762,0,0,0,3.6-1.113q1.025-1.113,1.025-4.277h1.406v13.887h-1.406a18.313,18.313,0,0,0-.205-3.047,3.9,3.9,0,0,0-.732-1.816,2.521,2.521,0,0,0-1.436-.937,9.487,9.487,0,0,0-2.314-.234h-8.789V-8.086a13.9,13.9,0,0,0,.264,3.018,2.718,2.718,0,0,0,1.143,1.729,4.751,4.751,0,0,0,2.314.85,29.779,29.779,0,0,0,3.9.205h4.043a20.027,20.027,0,0,0,4.1-.352,6.605,6.605,0,0,0,2.754-1.23A7.027,7.027,0,0,0-108.6-6.24a27.882,27.882,0,0,0,1.523-3.779h1.523q-.41,1.172-.791,2.373t-.732,2.373q-.352,1.23-.645,2.432t-.527,2.373q-7.676-.117-15.527-.117t-15.059.117V-1.934q3.691,0,4.8-1.23t1.113-4.922v-29a13.152,13.152,0,0,0-.264-2.93,3.043,3.043,0,0,0-.967-1.7,3.862,3.862,0,0,0-1.787-.732,16.9,16.9,0,0,0-2.9-.205V-44.18q7.031.176,14.473.176t14.063-.176V-34.8h-1.23a21.7,21.7,0,0,0-.674-3.9,4.57,4.57,0,0,0-1.436-2.314,5.59,5.59,0,0,0-2.578-1.055,25.222,25.222,0,0,0-4.277-.293h-8.5Zm83.555-8.613h-1.055q-.879-5.273-3.955-7.822t-8.877-2.549a19.059,19.059,0,0,0-7.588,1.494,17.62,17.62,0,0,0-6.006,4.189,19.294,19.294,0,0,0-3.926,6.387,22.708,22.708,0,0,0-1.406,8.145A24.586,24.586,0,0,0-76.7-14.209a21,21,0,0,0,4.248,6.885A18.629,18.629,0,0,0-66.123-2.9,19.618,19.618,0,0,0-58.33-1.348q5.273,0,8.027-3.076A15.624,15.624,0,0,0-46.67-12.07h1.348L-46.846-2.4a11.186,11.186,0,0,1-2.373,1.055,33.3,33.3,0,0,1-3.369.938q-1.875.41-3.721.674a23.329,23.329,0,0,1-3.252.264,25.27,25.27,0,0,1-9.287-1.641,20.454,20.454,0,0,1-7.236-4.746A20.919,20.919,0,0,1-80.8-13.242a26.883,26.883,0,0,1-1.67-9.727,20.831,20.831,0,0,1,1.9-8.936,22.557,22.557,0,0,1,5.127-7.061,23.362,23.362,0,0,1,7.266-4.57,22.525,22.525,0,0,1,8.438-1.641,28.543,28.543,0,0,1,7,.879,52.786,52.786,0,0,1,6.709,2.168Zm10.313-4.043a13.489,13.489,0,0,0-.264-2.988,3.232,3.232,0,0,0-.908-1.7,3.316,3.316,0,0,0-1.758-.762,23.844,23.844,0,0,0-2.812-.234v-1.523q1.113.117,3.193.117h4.424q2.285,0,4.424-.029t3.311-.088v1.523a23.844,23.844,0,0,0-2.812.234,3.316,3.316,0,0,0-1.758.762,3.077,3.077,0,0,0-.879,1.7,15.125,15.125,0,0,0-.234,2.988v28.77q0,3.867,1.143,5.1t4.541,1.23V-.469q-1.172,0-3.252-.029t-4.365-.029h-4.453q-2.109,0-3.281.059V-1.934q3.4,0,4.57-1.26t1.172-5.068Zm49.863.879H13.154a19.719,19.719,0,0,0-.264-2.812,3.243,3.243,0,0,0-.85-1.758,3.78,3.78,0,0,0-1.934-.967,16.67,16.67,0,0,0-3.34-.264h-8.32V-8.32A17.861,17.861,0,0,0-1.318-5.1,3.867,3.867,0,0,0-.439-3.164,3.362,3.362,0,0,0,1.318-2.2a12.82,12.82,0,0,0,2.871.264V-.469Q2.666-.469.645-.5T-3.486-.527H-7.676q-2.021,0-3.486.059V-1.934q3.34,0,4.512-1.23T-5.479-8.32V-41.953h-7.148a19.455,19.455,0,0,0-3.545.264,5.527,5.527,0,0,0-2.256.908A4.3,4.3,0,0,0-19.8-39.023a16.179,16.179,0,0,0-.908,2.871h-1.582l.645-8.086q3.809.176,8.613.234t9.785.059q5.039,0,9.844-.059t8.672-.234ZM41.221-7.617q0,3.4,1.143,4.541t4.6,1.143V-.469q-1.7-.059-3.721-.088T39.17-.586q-2.051,0-4.043.029t-3.516.088V-1.934q3.34,0,4.512-1.084t1.172-4.6V-21.5l-12.363-17.4a23.279,23.279,0,0,0-1.67-1.992,5.037,5.037,0,0,0-1.494-1.113,4.727,4.727,0,0,0-1.582-.527,13.379,13.379,0,0,0-1.875-.117V-44.18q1.289.117,3.105.117h3.75q1.934,0,3.838-.059t3.428-.117v1.523q-2.52,0-3.281.85t.762,2.959L40.518-24.2,51.475-39.082q1.465-1.934.85-2.812t-3.955-.82v-1.523q2.461.117,5.156.117t4.98-.117v1.523a5.89,5.89,0,0,0-1.641.293,4.345,4.345,0,0,0-1.23.7,8.958,8.958,0,0,0-1.113,1.23q-.586.762-1.348,1.816L41.221-22.441Zm44.59-29.414a13.489,13.489,0,0,0-.264-2.988,3.232,3.232,0,0,0-.908-1.7,3.316,3.316,0,0,0-1.758-.762,23.844,23.844,0,0,0-2.812-.234v-1.523q1.113.117,3.193.117h4.424q2.285,0,4.424-.029t3.311-.088v1.523a23.844,23.844,0,0,0-2.812.234,3.316,3.316,0,0,0-1.758.762,3.077,3.077,0,0,0-.879,1.7,15.125,15.125,0,0,0-.234,2.988v28.77q0,3.867,1.143,5.1t4.541,1.23V-.469q-1.172,0-3.252-.029T87.8-.527H83.35q-2.109,0-3.281.059V-1.934q3.4,0,4.57-1.26t1.172-5.068ZM140.947.176H139.6L108.193-38.2V-8.262a17.518,17.518,0,0,0,.264,3.428,3.464,3.464,0,0,0,.967,1.9,3.4,3.4,0,0,0,1.816.82,18.563,18.563,0,0,0,2.813.176V-.469q-1.523,0-3.428-.029t-3.838-.029H102.92q-1.875,0-3.34.059V-1.934a20.124,20.124,0,0,0,3.105-.205,4.109,4.109,0,0,0,2.051-.85,3.531,3.531,0,0,0,1.172-1.875,12.627,12.627,0,0,0,.352-3.34V-36.738q0-3.457-1.875-4.717t-5.859-1.26V-44.18a12.4,12.4,0,0,0,1.934.117h2.578q1.348,0,2.549-.029t1.846-.088L139.014-6.445V-36.8a13.564,13.564,0,0,0-.264-2.959,3.61,3.61,0,0,0-.908-1.787,3.457,3.457,0,0,0-1.816-.879,18.78,18.78,0,0,0-2.988-.293v-1.523q1.113.059,3.047.088t3.926.029q2.051,0,3.926-.029t2.93-.088v1.523a18.216,18.216,0,0,0-3.076.205,3.269,3.269,0,0,0-1.787.85,3.269,3.269,0,0,0-.85,1.787,18.216,18.216,0,0,0-.205,3.076ZM160.166-8.2a21.324,21.324,0,0,0,.205,3.34,3.619,3.619,0,0,0,.791,1.875,3.243,3.243,0,0,0,1.758.85,17.234,17.234,0,0,0,2.988.205V-.469q-1.23,0-3.369-.029t-4.424-.029q-2.344,0-4.482.029t-3.311.029V-1.934a18.765,18.765,0,0,0,3.105-.205,3.1,3.1,0,0,0,1.816-.908,3.619,3.619,0,0,0,.791-1.875A20.839,20.839,0,0,0,156.24-8.2V-37.09a12.747,12.747,0,0,0-.264-2.9,2.885,2.885,0,0,0-.908-1.611,3.522,3.522,0,0,0-1.787-.791,21.213,21.213,0,0,0-2.959-.264v-1.582q7.031.176,14.238.176t14.238-.176l.352,8.848-1.523-.059a26.977,26.977,0,0,0-.674-3.34,4.045,4.045,0,0,0-1.318-2.109,5.04,5.04,0,0,0-2.52-1.143,23.786,23.786,0,0,0-4.395-.322h-8.555v17.988h8.555q2.813,0,3.9-.937t1.26-4.277h1.641q-.117,1.172-.146,2.9t-.029,3.662q0,1.934.029,3.75t.146,3.105h-1.465q-.176-3.223-1.2-4.482t-4.014-1.26h-8.672Zm67.969-14.355a23.721,23.721,0,0,1-1.582,8.5A23.6,23.6,0,0,1,222.1-6.68a21.16,21.16,0,0,1-6.8,5.244,19.483,19.483,0,0,1-8.73,1.963,19.385,19.385,0,0,1-8.291-1.816,21.482,21.482,0,0,1-6.768-4.922,23.072,23.072,0,0,1-4.6-7.207,22.775,22.775,0,0,1-1.67-8.672,23.88,23.88,0,0,1,1.553-8.467,24.583,24.583,0,0,1,4.365-7.412,22.758,22.758,0,0,1,6.826-5.215,19.193,19.193,0,0,1,8.76-1.992,19,19,0,0,1,8.232,1.846,22.6,22.6,0,0,1,6.826,4.951,24.565,24.565,0,0,1,4.6,7.207A21.956,21.956,0,0,1,228.135-22.559ZM223.447-20.8a29.565,29.565,0,0,0-1.055-7.559,25.2,25.2,0,0,0-3.223-7.324,18,18,0,0,0-5.42-5.508,13.849,13.849,0,0,0-7.764-2.168,14.653,14.653,0,0,0-6.592,1.465,15.8,15.8,0,0,0-5.127,4.043,18.9,18.9,0,0,0-3.281,6.152,24.884,24.884,0,0,0-1.172,7.793,29.765,29.765,0,0,0,1.055,7.617,26.157,26.157,0,0,0,3.164,7.324,18.448,18.448,0,0,0,5.449,5.479,13.952,13.952,0,0,0,7.793,2.139,15.84,15.84,0,0,0,6.885-1.436A14.157,14.157,0,0,0,219.229-6.8a18.293,18.293,0,0,0,3.135-6.152A26.962,26.962,0,0,0,223.447-20.8Z" transform="translate(683 3029)"/>
    <path id="パス_38_-_アウトライン" data-name="パス 38 - アウトライン" d="M-59.736-45.676a29.176,29.176,0,0,1,7.124.894,53.542,53.542,0,0,1,6.772,2.189l.293.117.64,9.988h-2.011l-.07-.418c-.563-3.377-1.835-5.907-3.781-7.519s-4.828-2.434-8.558-2.434a18.65,18.65,0,0,0-7.391,1.454,17.2,17.2,0,0,0-5.838,4.071,18.887,18.887,0,0,0-3.824,6.223,22.317,22.317,0,0,0-1.373,7.967,24.2,24.2,0,0,0,1.519,8.755,20.6,20.6,0,0,0,4.146,6.723,18.217,18.217,0,0,0,6.16,4.306,19.211,19.211,0,0,0,7.6,1.513c3.351,0,5.926-.979,7.655-2.91a15.2,15.2,0,0,0,3.514-7.407l.078-.406h2.346L-46.387-2.1l-.189.121A11.545,11.545,0,0,1-49.058-.874a33.937,33.937,0,0,1-3.42.952c-1.26.276-2.524.5-3.76.681a23.94,23.94,0,0,1-3.323.269A25.883,25.883,0,0,1-69.03-.648a21.044,21.044,0,0,1-7.411-4.862,21.507,21.507,0,0,1-4.826-7.553,27.5,27.5,0,0,1-1.7-9.906,21.422,21.422,0,0,1,1.951-9.147,23.16,23.16,0,0,1,5.24-7.215A23.97,23.97,0,0,1-68.36-44,23.125,23.125,0,0,1-59.736-45.676Zm13.232,3.9a52.684,52.684,0,0,0-6.352-2.031,28.174,28.174,0,0,0-6.88-.864,22.13,22.13,0,0,0-8.252,1.6A22.973,22.973,0,0,0-75.1-38.6a22.162,22.162,0,0,0-5.014,6.906,20.43,20.43,0,0,0-1.857,8.724,26.511,26.511,0,0,0,1.637,9.547,20.519,20.519,0,0,0,4.6,7.209,20.057,20.057,0,0,0,7.065,4.634,24.89,24.89,0,0,0,9.1,1.606,22.95,22.95,0,0,0,3.181-.259c1.212-.173,2.452-.4,3.685-.667a32.922,32.922,0,0,0,3.315-.922A11.869,11.869,0,0,0-47.3-2.709l1.4-8.862h-.354A16.045,16.045,0,0,1-49.93-4.09c-1.926,2.152-4.752,3.243-8.4,3.243a20.2,20.2,0,0,1-7.99-1.593,19.212,19.212,0,0,1-6.5-4.541,21.591,21.591,0,0,1-4.35-7.047,25.2,25.2,0,0,1-1.586-9.116,23.309,23.309,0,0,1,1.439-8.323,19.881,19.881,0,0,1,4.028-6.55,18.2,18.2,0,0,1,6.174-4.308,19.643,19.643,0,0,1,7.785-1.535c3.969,0,7.063.9,9.2,2.664a12.656,12.656,0,0,1,4.055,7.707h.1Zm253.252-3.9a19.58,19.58,0,0,1,8.446,1.894,23.2,23.2,0,0,1,6.976,5.06l0,0a25.178,25.178,0,0,1,4.693,7.352,22.554,22.554,0,0,1,1.768,8.807,24.329,24.329,0,0,1-1.615,8.674,24.209,24.209,0,0,1-4.543,7.533,21.754,21.754,0,0,1-6.953,5.364,20.068,20.068,0,0,1-8.951,2.014,19.97,19.97,0,0,1-8.5-1.863,22.079,22.079,0,0,1-6.92-5.032h0a23.679,23.679,0,0,1-4.7-7.362,23.378,23.378,0,0,1-1.707-8.86,24.487,24.487,0,0,1,1.585-8.643,25.194,25.194,0,0,1,4.454-7.562l.006-.007a23.36,23.36,0,0,1,6.975-5.329A19.776,19.776,0,0,1,206.748-45.676Zm14.695,7.64a22.2,22.2,0,0,0-6.677-4.842,18.587,18.587,0,0,0-8.018-1.8,18.786,18.786,0,0,0-8.535,1.939,22.366,22.366,0,0,0-6.674,5.1,24.2,24.2,0,0,0-4.274,7.26,23.49,23.49,0,0,0-1.521,8.291,22.383,22.383,0,0,0,1.633,8.483,22.681,22.681,0,0,0,4.5,7.052l0,0a21.084,21.084,0,0,0,6.612,4.808,18.977,18.977,0,0,0,8.08,1.77,19.077,19.077,0,0,0,8.51-1.911,20.76,20.76,0,0,0,6.638-5.121l.006-.007a23.211,23.211,0,0,0,4.359-7.228,23.332,23.332,0,0,0,1.549-8.318,21.559,21.559,0,0,0-1.689-8.419,24.183,24.183,0,0,0-4.5-7.058ZM-190.49-44.794l.552.058c.724.076,1.783.125,3.148.144s2.864.029,4.417.029c1.514,0,3-.01,4.417-.029s2.5-.068,3.268-.144l.55-.055v2.559l-.483.017a19.33,19.33,0,0,0-2.739.256,3.037,3.037,0,0,0-1.5.661,2.948,2.948,0,0,0-.735,1.5,14.336,14.336,0,0,0-.224,2.827v11.863h26.715V-37.148a11.406,11.406,0,0,0-.276-2.828,2.917,2.917,0,0,0-.791-1.43,2.722,2.722,0,0,0-1.514-.606c-.743-.1-1.664-.163-2.737-.2l-.482-.017v-2.53l.524.025c.811.039,1.949.068,3.381.087s2.932.029,4.446.029c1.553,0,3.029-.01,4.387-.029s2.413-.049,3.145-.087l.526-.028v2.533l-.483.017a23.471,23.471,0,0,0-2.752.229,2.847,2.847,0,0,0-1.5.638l-.016.014a2.381,2.381,0,0,0-.769,1.392,13.887,13.887,0,0,0-.223,2.795V-8.262a17.473,17.473,0,0,0,.226,3.129,3.4,3.4,0,0,0,.756,1.689,2.692,2.692,0,0,0,1.492.786A13.958,13.958,0,0,0-143-2.434h.5V.058l-.526-.028c-.732-.039-1.8-.068-3.174-.087s-2.844-.029-4.358-.029-3.01.01-4.446.029-2.571.049-3.381.087l-.524.025V-2.434h.5a11.464,11.464,0,0,0,2.8-.277,3.065,3.065,0,0,0,1.517-.85,3.373,3.373,0,0,0,.757-1.662,16.551,16.551,0,0,0,.225-3.039V-21.648h-26.715V-8.262a22.783,22.783,0,0,0,.171,3.093,3.056,3.056,0,0,0,.694,1.666l.015.018a2.574,2.574,0,0,0,1.43.8,13.081,13.081,0,0,0,2.873.25h.5V.031h-.5c-.78,0-1.876-.01-3.259-.029s-2.844-.029-4.358-.029h-4.453c-1.391,0-2.487.02-3.256.058l-.525.026v-2.49h.5c2.183,0,3.615-.367,4.254-1.091.451-.51.988-1.746.988-4.737V-36.973a13.083,13.083,0,0,0-.25-2.873,2.765,2.765,0,0,0-.758-1.445l-.017-.016a2.617,2.617,0,0,0-1.482-.68,23.474,23.474,0,0,0-2.752-.229l-.483-.017Zm39.934,1.173c-1.519,0-3.019-.01-4.46-.029-1.16-.016-2.129-.038-2.892-.066v.522c.9.041,1.688.1,2.347.189a3.687,3.687,0,0,1,2.06.858,3.888,3.888,0,0,1,1.084,1.909,12.171,12.171,0,0,1,.31,3.089v13.039h-28.715V-36.973a15.3,15.3,0,0,1,.245-3.033,3.914,3.914,0,0,1,1.015-2.008l.017-.016a4,4,0,0,1,2-.913,18.69,18.69,0,0,1,2.4-.252v-.5c-.735.053-1.675.087-2.8.1-1.421.019-2.912.029-4.431.029-1.558,0-3.048-.01-4.431-.029-1.085-.015-1.985-.049-2.686-.1v.5a22.489,22.489,0,0,1,2.39.221,3.593,3.593,0,0,1,2.025.953,3.739,3.739,0,0,1,1.049,1.946,14.029,14.029,0,0,1,.277,3.1V-8.262c0,2.69-.405,4.456-1.239,5.4-.792.9-2.268,1.363-4.5,1.422v.45c.73-.025,1.662-.037,2.781-.037h4.453c1.519,0,2.99.01,4.372.029,1.1.016,2.024.025,2.745.028v-.469a12.794,12.794,0,0,1-2.6-.272,3.547,3.547,0,0,1-1.96-1.123,4.031,4.031,0,0,1-.94-2.193,23.751,23.751,0,0,1-.181-3.235V-22.648h28.715V-8.262a17.514,17.514,0,0,1-.244,3.231,4.346,4.346,0,0,1-1,2.146,4.042,4.042,0,0,1-2,1.142,11.377,11.377,0,0,1-2.557.3V-.99c.763-.028,1.732-.051,2.892-.066,1.441-.019,2.941-.029,4.46-.029s2.99.01,4.372.029c1.089.015,1.989.037,2.686.065v-.447a13.681,13.681,0,0,1-2.474-.24A3.7,3.7,0,0,1-148-2.768a4.371,4.371,0,0,1-1-2.178,18.429,18.429,0,0,1-.243-3.316V-37.148a14.836,14.836,0,0,1,.246-3.006,3.387,3.387,0,0,1,1.1-1.942,3.824,3.824,0,0,1,2.008-.878,22.486,22.486,0,0,1,2.39-.221v-.52c-.694.028-1.584.049-2.657.065C-147.518-43.631-149-43.621-150.557-43.621Zm109.188-1.173.552.058c.721.076,1.778.114,3.141.114h4.424c1.514,0,3-.01,4.417-.029s2.521-.049,3.292-.087l.525-.026v2.532l-.483.017a23.471,23.471,0,0,0-2.752.229,2.848,2.848,0,0,0-1.5.638,2.61,2.61,0,0,0-.726,1.432,14.724,14.724,0,0,0-.224,2.885v28.77c0,3.034.549,4.262,1.009,4.757.66.71,2.064,1.071,4.175,1.071h.5V.031h-.5c-.78,0-1.876-.01-3.259-.029s-2.844-.029-4.358-.029h-4.453c-1.391,0-2.487.02-3.256.058l-.525.026v-2.49h.5c2.111,0,3.525-.37,4.2-1.1s1.038-2.331,1.038-4.728v-28.77a13.078,13.078,0,0,0-.25-2.873,2.765,2.765,0,0,0-.758-1.445,2.848,2.848,0,0,0-1.5-.638,23.471,23.471,0,0,0-2.752-.229l-.483-.017Zm15.352,1.6v-.521c-.731.028-1.671.05-2.8.066-1.421.019-2.912.029-4.431.029h-4.424c-1.088,0-1.99-.024-2.693-.073v.5a22.487,22.487,0,0,1,2.39.221,3.817,3.817,0,0,1,2.016.886A3.731,3.731,0,0,1-34.9-40.135a14.024,14.024,0,0,1,.277,3.1v28.77c0,2.7-.427,4.464-1.306,5.409-.826.888-2.28,1.352-4.436,1.412V-.99c.73-.025,1.662-.037,2.781-.037h4.453c1.519,0,2.99.01,4.372.029,1.1.016,2.024.025,2.745.028v-.47c-2.155-.059-3.6-.514-4.407-1.384-.859-.925-1.276-2.7-1.276-5.438v-28.77a15.676,15.676,0,0,1,.245-3.091,3.576,3.576,0,0,1,1.032-1.966,3.817,3.817,0,0,1,2.016-.886A22.488,22.488,0,0,1-26.018-43.195Zm105.586-1.6.552.058c.721.076,1.778.114,3.141.114h4.424c1.514,0,3-.01,4.417-.029s2.521-.049,3.292-.087l.525-.026v2.532l-.483.017a23.471,23.471,0,0,0-2.752.229,2.848,2.848,0,0,0-1.5.638,2.61,2.61,0,0,0-.726,1.432,14.724,14.724,0,0,0-.224,2.885v28.77c0,3.034.549,4.262,1.009,4.757.66.71,2.064,1.071,4.175,1.071h.5V.031h-.5c-.78,0-1.876-.01-3.259-.029S89.317-.027,87.8-.027H83.35c-1.391,0-2.487.02-3.256.058l-.525.026v-2.49h.5c2.111,0,3.525-.37,4.2-1.1s1.038-2.331,1.038-4.728v-28.77a13.083,13.083,0,0,0-.25-2.873,2.765,2.765,0,0,0-.758-1.445,2.847,2.847,0,0,0-1.5-.638,23.475,23.475,0,0,0-2.752-.229l-.483-.017Zm15.352,1.6v-.521c-.731.028-1.671.05-2.8.066-1.421.019-2.912.029-4.431.029H83.262c-1.088,0-1.99-.024-2.693-.073v.5a22.489,22.489,0,0,1,2.39.221,3.816,3.816,0,0,1,2.016.886,3.731,3.731,0,0,1,1.058,1.954,14.029,14.029,0,0,1,.277,3.1v28.77c0,2.7-.427,4.464-1.306,5.409-.826.888-2.28,1.352-4.436,1.412V-.99c.73-.025,1.662-.037,2.781-.037H87.8c1.519,0,2.99.01,4.372.029,1.1.016,2.024.025,2.745.028v-.47c-2.155-.059-3.6-.514-4.407-1.384-.859-.925-1.276-2.7-1.276-5.438v-28.77a15.676,15.676,0,0,1,.245-3.091,3.576,3.576,0,0,1,1.032-1.966,3.817,3.817,0,0,1,2.016-.886A22.488,22.488,0,0,1,94.92-43.195Zm3.105-1.575.582.1a11.992,11.992,0,0,0,1.851.11h2.578c.89,0,1.744-.01,2.537-.029s1.4-.048,1.813-.086l.261-.024.168.2,30.7,36.679V-36.8a13.153,13.153,0,0,0-.251-2.847,3.142,3.142,0,0,0-.775-1.546,2.99,2.99,0,0,0-1.561-.742,18.382,18.382,0,0,0-2.906-.284l-.484-.016v-2.535l.526.028c.732.039,1.751.068,3.028.087s2.6.029,3.918.029c1.358,0,2.676-.01,3.918-.029s2.217-.049,2.91-.087l.528-.029v2.552h-.5a17.827,17.827,0,0,0-2.988.2,2.8,2.8,0,0,0-1.522.711,2.8,2.8,0,0,0-.711,1.522,17.831,17.831,0,0,0-.2,2.988V.676h-2.085l-.15-.183L108.693-36.8V-8.262a17.129,17.129,0,0,0,.253,3.325,3,3,0,0,0,.815,1.638,2.927,2.927,0,0,0,1.557.695,18.163,18.163,0,0,0,2.734.17h.5V.031h-.5c-1.013,0-2.169-.01-3.435-.029s-2.55-.029-3.83-.029H102.92c-1.238,0-2.355.02-3.32.058l-.52.021V-2.434h.5a19.736,19.736,0,0,0,3.027-.2,3.643,3.643,0,0,0,1.806-.738l.014-.011a3.061,3.061,0,0,0,1-1.619,12.215,12.215,0,0,0,.332-3.2V-36.738c0-2.117-.556-3.564-1.654-4.3-1.16-.78-3.038-1.175-5.58-1.175h-.5Zm41.984,1.149c-1.324,0-2.648-.01-3.933-.029-1.009-.015-1.86-.037-2.539-.064v.519a17.882,17.882,0,0,1,2.586.283A3.957,3.957,0,0,1,138.2-41.9a4.113,4.113,0,0,1,1.042,2.028,14.108,14.108,0,0,1,.276,3.071V-5.069l-32.3-38.592c-.415.03-.957.053-1.616.069-.8.02-1.663.029-2.561.029h-2.578c-.558,0-1.032-.017-1.434-.052v.4a10.488,10.488,0,0,1,5.638,1.34c1.391.935,2.1,2.661,2.1,5.132V-8.2a13.16,13.16,0,0,1-.371,3.477A4.037,4.037,0,0,1,105.053-2.6a4.62,4.62,0,0,1-2.289.957,19.41,19.41,0,0,1-2.684.207v.451c.852-.027,1.8-.04,2.84-.04h3.867c1.286,0,2.579.01,3.846.029,1.057.016,2.037.026,2.92.028v-.468a17.556,17.556,0,0,1-2.39-.178,3.9,3.9,0,0,1-2.076-.946,3.962,3.962,0,0,1-1.118-2.17,18.073,18.073,0,0,1-.274-3.53V-39.6L139.836-.324h.611V-36.8a18.774,18.774,0,0,1,.213-3.165,3.768,3.768,0,0,1,.988-2.052A3.768,3.768,0,0,1,143.7-43a17.1,17.1,0,0,1,2.665-.209v-.5c-.645.027-1.456.048-2.422.063C142.7-43.631,141.373-43.621,140.01-43.621Zm-81-1.143v2.521l-.471.028a5.437,5.437,0,0,0-1.5.264,3.862,3.862,0,0,0-1.079.615,8.556,8.556,0,0,0-1.04,1.153c-.386.5-.836,1.109-1.339,1.8l-11.858,16.1v14.66c0,2.118.335,3.526,1,4.187.454.454,1.56,1,4.246,1h.5V.049L46.946.031c-1.124-.039-2.373-.068-3.711-.088-2.678-.039-5.462-.039-8.1,0-1.318.019-2.5.049-3.5.088l-.519.02V-2.434h.5c2.086,0,3.49-.32,4.172-.951.461-.427,1.011-1.508,1.011-4.233V-21.344L24.529-38.61A22.877,22.877,0,0,0,22.9-40.552a4.571,4.571,0,0,0-1.343-1.006l-.027-.014a4.251,4.251,0,0,0-1.416-.473,12.944,12.944,0,0,0-1.8-.112h-.5v-2.571l.545.05c.84.076,1.87.115,3.06.115h3.75c1.278,0,2.564-.02,3.823-.058s2.414-.078,3.424-.117l.519-.02v2.543h-.5c-1.9,0-2.629.372-2.909.683-.313.349-.024,1.2.795,2.332l10.2,14.151L51.076-39.384c.791-1.044,1.1-1.855.839-2.224-.129-.184-.692-.611-3.139-.611-.129,0-.262,0-.4,0l-.509.009v-2.557l.524.025c1.625.077,3.352.117,5.133.117s3.447-.039,4.955-.117ZM31.932-43.206v-.513c-.882.033-1.859.065-2.912.1-1.269.039-2.565.059-3.853.059h-3.75c-.976,0-1.85-.026-2.605-.076v.49a12.855,12.855,0,0,1,1.446.115,5.244,5.244,0,0,1,1.735.575,5.569,5.569,0,0,1,1.631,1.214,23.885,23.885,0,0,1,1.707,2.036l.01.013L37.795-21.663V-7.617c0,2.513-.436,4.137-1.332,4.967-.822.76-2.248,1.158-4.351,1.211v.453c.893-.03,1.9-.053,3.008-.07,2.649-.039,5.442-.039,8.13,0,1.143.017,2.221.04,3.213.071V-1.44c-2.186-.054-3.646-.476-4.453-1.283-.867-.867-1.289-2.468-1.289-4.895V-22.606L52.771-38.968c.505-.7.962-1.315,1.354-1.825a9.5,9.5,0,0,1,1.177-1.3l.02-.017a4.86,4.86,0,0,1,1.372-.783,5.691,5.691,0,0,1,1.311-.283v-.539c-1.383.062-2.888.093-4.48.093s-3.17-.032-4.656-.094v.5c2.147.009,3.376.339,3.865,1.037.554.792.273,1.9-.859,3.4L40.513-23.35,29.507-38.614a6.128,6.128,0,0,1-1.031-1.962,1.672,1.672,0,0,1,.3-1.623A4.361,4.361,0,0,1,31.932-43.206Zm-224.551-1.557-.594,9.111h-2.534l-.017-.483a19.341,19.341,0,0,0-.256-2.739,2.773,2.773,0,0,0-.711-1.495,3.312,3.312,0,0,0-1.685-.831,16.282,16.282,0,0,0-3.235-.253h-7.82V-8.32a17.473,17.473,0,0,0,.226,3.129,3.4,3.4,0,0,0,.756,1.689,2.89,2.89,0,0,0,1.5.818,12.4,12.4,0,0,0,2.756.25h.5V.031h-.5c-1.013,0-2.208-.01-3.552-.029s-2.726-.029-4.124-.029h-4.189c-1.335,0-2.5.02-3.466.058l-.52.021V-2.434h.5c2.074,0,3.47-.362,4.15-1.075.472-.5,1.034-1.732,1.034-4.811V-41.453h-6.648a19.071,19.071,0,0,0-3.451.255,5.064,5.064,0,0,0-2.054.82,3.83,3.83,0,0,0-1.216,1.559,15.771,15.771,0,0,0-.878,2.781l-.09.386h-2.52l.726-9.108.483.022c2.522.116,5.414.2,8.6.234s6.476.059,9.779.059c3.342,0,6.652-.02,9.838-.059s6.095-.118,8.655-.234Zm-19.051,1.318c-3.307,0-6.6-.02-9.791-.059-2.993-.036-5.73-.108-8.147-.213l-.563,7.065h.647a15.761,15.761,0,0,1,.846-2.575,4.816,4.816,0,0,1,1.538-1.957,6.043,6.043,0,0,1,2.458-1,20.028,20.028,0,0,1,3.639-.273h7.648V-8.32c0,2.776-.428,4.576-1.31,5.5-.825.866-2.258,1.318-4.374,1.379v.454c.867-.027,1.869-.041,2.986-.041h4.189c1.4,0,2.794.01,4.138.029,1.124.016,2.143.026,3.038.028v-.47a12.267,12.267,0,0,1-2.486-.272,3.866,3.866,0,0,1-2.011-1.115,4.371,4.371,0,0,1-1-2.178,18.431,18.431,0,0,1-.243-3.316V-42.453h8.82a17.221,17.221,0,0,1,3.445.275,4.284,4.284,0,0,1,2.182,1.1,3.744,3.744,0,0,1,.988,2.021,18.7,18.7,0,0,1,.251,2.4h.634l.461-7.062c-2.434.1-5.166.174-8.131.21C-205.01-43.465-208.324-43.445-211.67-43.445ZM15.8-44.763,15.2-35.652H12.671l-.017-.483a19.334,19.334,0,0,0-.256-2.739,2.772,2.772,0,0,0-.711-1.495A3.311,3.311,0,0,0,10-41.2a16.281,16.281,0,0,0-3.235-.253h-7.82V-8.32A17.472,17.472,0,0,0-.827-5.191,3.4,3.4,0,0,0-.071-3.5a2.891,2.891,0,0,0,1.5.818,12.4,12.4,0,0,0,2.756.25h.5V.031h-.5C3.176.031,1.981.021.637,0S-2.089-.027-3.486-.027H-7.676c-1.335,0-2.5.02-3.466.058l-.52.021V-2.434h.5c2.074,0,3.47-.362,4.15-1.075C-6.541-4-5.979-5.241-5.979-8.32V-41.453h-6.648a19.074,19.074,0,0,0-3.451.255,5.063,5.063,0,0,0-2.054.82,3.831,3.831,0,0,0-1.216,1.559,15.766,15.766,0,0,0-.878,2.781l-.09.386h-2.52l.726-9.108.483.022c2.522.116,5.414.2,8.6.234s6.476.059,9.779.059c3.342,0,6.651-.02,9.838-.059s6.095-.118,8.655-.234ZM-3.252-43.445c-3.307,0-6.6-.02-9.791-.059-2.993-.036-5.73-.108-8.147-.213l-.563,7.065h.647a15.759,15.759,0,0,1,.846-2.575,4.816,4.816,0,0,1,1.538-1.957,6.042,6.042,0,0,1,2.457-1,20.031,20.031,0,0,1,3.639-.273h7.648V-8.32c0,2.776-.428,4.576-1.31,5.5-.825.866-2.258,1.318-4.374,1.379v.454c.867-.027,1.869-.041,2.986-.041h4.189c1.4,0,2.794.01,4.138.029,1.124.016,2.143.026,3.038.028v-.47A12.267,12.267,0,0,1,1.2-1.711,3.866,3.866,0,0,1-.808-2.826,4.371,4.371,0,0,1-1.81-5,18.429,18.429,0,0,1-2.053-8.32V-42.453h8.82a17.22,17.22,0,0,1,3.445.275,4.284,4.284,0,0,1,2.182,1.1,3.744,3.744,0,0,1,.988,2.021,18.7,18.7,0,0,1,.251,2.4h.634l.461-7.062c-2.434.1-5.166.174-8.13.21C3.408-43.465.094-43.445-3.252-43.445Zm153.074-1.306.512.013c4.662.117,9.448.176,14.226.176s9.564-.059,14.226-.176l.493-.012.393,9.88-2.479-.1-.06-.411a26.609,26.609,0,0,0-.66-3.277,3.527,3.527,0,0,0-1.152-1.857l-.026-.023a4.584,4.584,0,0,0-2.275-1.017,23.423,23.423,0,0,0-4.3-.313h-8.055v16.988h8.055a5.686,5.686,0,0,0,3.569-.816c.421-.364.951-1.341,1.088-3.925l.025-.474h2.667l-.055.55c-.076.764-.125,1.726-.144,2.859s-.029,2.372-.029,3.654.01,2.541.029,3.742.068,2.225.144,3.068l.05.545h-2.486l-.026-.473a7.632,7.632,0,0,0-1.09-4.194c-.581-.714-1.8-1.075-3.626-1.075h-8.172V-8.2a20.95,20.95,0,0,0,.2,3.258,3.177,3.177,0,0,0,.66,1.612,2.78,2.78,0,0,0,1.487.7,16.848,16.848,0,0,0,2.9.2h.5V.031h-.5c-.819,0-1.955-.01-3.376-.029s-2.9-.029-4.417-.029c-1.553,0-3.059.01-4.476.029s-2.538.029-3.317.029h-.5V-2.434h.5a18.376,18.376,0,0,0,3.019-.2,2.631,2.631,0,0,0,1.534-.753A3.16,3.16,0,0,0,155.542-5a20.469,20.469,0,0,0,.2-3.2V-37.09a12.332,12.332,0,0,0-.25-2.782,2.42,2.42,0,0,0-.739-1.343l-.02-.017a3.056,3.056,0,0,0-1.539-.669,20.84,20.84,0,0,0-2.887-.256l-.484-.016Zm28.807,8.84-.311-7.815c-4.514.109-9.14.164-13.758.164s-9.231-.055-13.738-.163v.589a20.025,20.025,0,0,1,2.547.253,4.034,4.034,0,0,1,2.025.9,3.387,3.387,0,0,1,1.068,1.872,13.28,13.28,0,0,1,.278,3.019V-8.2a21.416,21.416,0,0,1-.212,3.363,4.116,4.116,0,0,1-.914,2.129,3.6,3.6,0,0,1-2.1,1.064,17.689,17.689,0,0,1-2.692.209V-.97c.728,0,1.667-.013,2.8-.028,1.421-.019,2.932-.029,4.489-.029,1.519,0,3.009.01,4.431.029,1.147.016,2.106.025,2.862.028v-.468a16.181,16.181,0,0,1-2.579-.21,3.744,3.744,0,0,1-2.021-.988l-.016-.017a4.115,4.115,0,0,1-.914-2.129,21.887,21.887,0,0,1-.212-3.422V-22.414h9.172c2.171,0,3.611.472,4.4,1.444a7.794,7.794,0,0,1,1.282,4.3h.455c-.054-.753-.089-1.624-.1-2.6-.02-1.207-.029-2.471-.029-3.758s.01-2.522.029-3.671c.015-.906.049-1.707.1-2.392h-.626c-.161,2.118-.621,3.48-1.4,4.156-.824.713-2.206,1.059-4.224,1.059h-9.055V-42.863h9.055a24.38,24.38,0,0,1,4.491.332,5.562,5.562,0,0,1,2.752,1.256,4.556,4.556,0,0,1,1.471,2.351,26.167,26.167,0,0,1,.625,2.992ZM-109.8-44.693V-34.3h-2.184l-.044-.451a21.314,21.314,0,0,0-.656-3.8,4.1,4.1,0,0,0-1.274-2.07,5.133,5.133,0,0,0-2.348-.948,24.864,24.864,0,0,0-4.189-.285h-8v16.988h8.348a4.343,4.343,0,0,0,3.236-.952c.593-.643.893-1.969.893-3.939v-.5h2.406v14.887h-2.406v-.5a17.923,17.923,0,0,0-.2-2.961,3.434,3.434,0,0,0-.627-1.586l-.013-.017a2.018,2.018,0,0,0-1.161-.753,9.052,9.052,0,0,0-2.189-.218h-8.289V-8.086a13.5,13.5,0,0,0,.251,2.905,2.216,2.216,0,0,0,.933,1.425l.032.023a4.3,4.3,0,0,0,2.073.747,29.446,29.446,0,0,0,3.829.2h4.043a19.635,19.635,0,0,0,4-.34,6.142,6.142,0,0,0,2.549-1.134,6.566,6.566,0,0,0,1.739-2.208,27.525,27.525,0,0,0,1.495-3.71l.114-.342h2.588l-.233.665c-.271.774-.535,1.568-.786,2.359s-.5,1.588-.73,2.364c-.231.808-.446,1.619-.638,2.408s-.369,1.581-.523,2.353l-.082.408-.416-.006c-5.091-.078-10.312-.117-15.52-.117s-10.271.039-15.05.117l-.508.008V-2.434h.5c2.868,0,3.994-.58,4.434-1.066s.984-1.695.984-4.586v-29a12.74,12.74,0,0,0-.25-2.814,2.573,2.573,0,0,0-.8-1.43,3.4,3.4,0,0,0-1.555-.624,16.5,16.5,0,0,0-2.812-.2h-.5v-2.536l.512.013c4.661.117,9.527.176,14.46.176s9.66-.059,14.049-.176ZM-124.365-43.5c-4.762,0-9.459-.055-13.973-.163v.515a16.06,16.06,0,0,1,2.489.209,4.363,4.363,0,0,1,2.015.838,3.543,3.543,0,0,1,1.137,1.971,13.694,13.694,0,0,1,.277,3.045v29c0,2.614-.406,4.333-1.243,5.257-.794.878-2.326,1.334-4.675,1.389v.463c4.635-.072,9.53-.109,14.559-.109,5.071,0,10.156.037,15.12.111.136-.655.287-1.321.449-1.985.2-.8.415-1.628.65-2.45l0-.006c.234-.781.481-1.582.735-2.381.182-.575.372-1.152.566-1.722h-.463a27.442,27.442,0,0,1-1.437,3.506,7.554,7.554,0,0,1-2.011,2.538,7.129,7.129,0,0,1-2.959,1.327,20.6,20.6,0,0,1-4.206.363h-4.043a30.4,30.4,0,0,1-3.965-.21,5.276,5.276,0,0,1-2.54-.94,3.215,3.215,0,0,1-1.336-2.021,14.449,14.449,0,0,1-.276-3.13V-22.414h9.289a10.015,10.015,0,0,1,2.439.25,3.021,3.021,0,0,1,1.7,1.112,4.406,4.406,0,0,1,.832,2.039,17.332,17.332,0,0,1,.209,2.633h.41V-29.266h-.413c-.053,1.985-.431,3.334-1.151,4.116a5.235,5.235,0,0,1-3.971,1.275h-9.348V-42.863h9a25.828,25.828,0,0,1,4.365.3,6.1,6.1,0,0,1,2.806,1.159,5.081,5.081,0,0,1,1.6,2.561,21.023,21.023,0,0,1,.645,3.538h.28v-8.362C-115.055-43.559-119.615-43.5-124.365-43.5Zm330.352-.355a14.4,14.4,0,0,1,8.038,2.25,18.58,18.58,0,0,1,5.567,5.656,25.814,25.814,0,0,1,3.285,7.466,30.2,30.2,0,0,1,1.071,7.687,27.587,27.587,0,0,1-1.105,8,18.874,18.874,0,0,1-3.222,6.318,14.717,14.717,0,0,1-5.245,4.154,16.406,16.406,0,0,1-7.1,1.484,14.506,14.506,0,0,1-8.066-2.22,19.031,19.031,0,0,1-5.6-5.625l0-.005a26.779,26.779,0,0,1-3.225-7.463,30.4,30.4,0,0,1-1.071-7.745,25.5,25.5,0,0,1,1.2-7.949,19.485,19.485,0,0,1,3.369-6.313l0-.005a16.367,16.367,0,0,1,5.288-4.169A15.215,15.215,0,0,1,205.986-43.859Zm1.289,42.012a15.418,15.418,0,0,0,6.67-1.387,13.725,13.725,0,0,0,4.892-3.873,17.882,17.882,0,0,0,3.048-5.986,26.592,26.592,0,0,0,1.062-7.706,29.205,29.205,0,0,0-1.038-7.431,24.814,24.814,0,0,0-3.159-7.18l0-.005a17.587,17.587,0,0,0-5.271-5.357,13.42,13.42,0,0,0-7.49-2.086,14.225,14.225,0,0,0-6.37,1.413,15.371,15.371,0,0,0-4.965,3.916,18.5,18.5,0,0,0-3.189,5.987,24.5,24.5,0,0,0-1.147,7.637,29.406,29.406,0,0,0,1.038,7.489,25.78,25.78,0,0,0,3.1,7.182,18.036,18.036,0,0,0,5.3,5.329A13.526,13.526,0,0,0,207.275-1.848Z" transform="translate(683 3029)" fill="rgba(0,0,0,0)"/>
  </g>
</svg>
