<svg xmlns="http://www.w3.org/2000/svg" width="156.252" height="19.799" viewBox="0 0 156.252 19.799">
  <path id="パス_1687" data-name="パス 1687" d="M-77.212-3.217h.492q.123.527.281,1.037a3.045,3.045,0,0,0,.439.9,2.168,2.168,0,0,0,.756.642,2.6,2.6,0,0,0,1.2.237,3.335,3.335,0,0,0,2.215-.721,2.263,2.263,0,0,0,.861-1.811A2.584,2.584,0,0,0-71.2-4.052a3.021,3.021,0,0,0-.6-.853,4.955,4.955,0,0,0-.888-.668q-.5-.3-1.046-.6A11.667,11.667,0,0,1-74.839-6.8a6.616,6.616,0,0,1-1-.791,3.891,3.891,0,0,1-.712-1.028,2.965,2.965,0,0,1-.272-1.292,4.024,4.024,0,0,1,.3-1.617,2.993,2.993,0,0,1,.826-1.125,3.405,3.405,0,0,1,1.23-.677,5.042,5.042,0,0,1,1.512-.22,4.785,4.785,0,0,1,.51.026q.246.026.492.044.246.035.5.079t.554.079l.3,2.426h-.457a3.309,3.309,0,0,0-.615-1.582,1.924,1.924,0,0,0-1.547-.527,2.662,2.662,0,0,0-2.048.729,2.46,2.46,0,0,0-.677,1.731,2.276,2.276,0,0,0,.281,1.134,3.661,3.661,0,0,0,.721.905,5.891,5.891,0,0,0,1.02.721q.563.316,1.143.6.563.3,1.081.624a5.221,5.221,0,0,1,.923.729,3.461,3.461,0,0,1,.65.958,2.9,2.9,0,0,1,.246,1.222A3.492,3.492,0,0,1-70.26-2a3.924,3.924,0,0,1-.976,1.2,4.349,4.349,0,0,1-1.38.712,5.163,5.163,0,0,1-1.538.237,6.852,6.852,0,0,1-1.4-.141,5.589,5.589,0,0,1-1.239-.4Zm11.689.721a5.611,5.611,0,0,0,.07,1,1.16,1.16,0,0,0,.264.58,1.023,1.023,0,0,0,.527.264,4.312,4.312,0,0,0,.861.07v.439q-.492,0-1.09-.009t-1.23-.009h-1.222q-.606,0-1.081.018V-.58a4.2,4.2,0,0,0,.844-.07,1.023,1.023,0,0,0,.527-.264,1.218,1.218,0,0,0,.272-.58,5,5,0,0,0,.079-1v-8.631a4.287,4.287,0,0,0-.07-.87,1.1,1.1,0,0,0-.246-.519.934.934,0,0,0-.5-.237,4.758,4.758,0,0,0-.853-.062v-.439q.387.018.967.026t1.2-.009q.615,0,1.2-.009t.967-.026a4.779,4.779,0,0,1,3.164,1.011,3.353,3.353,0,0,1,1.213,2.716A3.739,3.739,0,0,1-59.977-8a3.546,3.546,0,0,1-.817,1.16,3.8,3.8,0,0,1-1.178.773,3.826,3.826,0,0,1-1.406.3q-.246.018-.519.026t-.554.009q-.3,0-.571-.009t-.5-.009Zm0-3.937q.457.053.967.07t.932,0a2.626,2.626,0,0,0,1.951-.844,3.161,3.161,0,0,0,.738-2.215,3.348,3.348,0,0,0-.29-1.441,2.994,2.994,0,0,0-.765-1.02,3.047,3.047,0,0,0-1.1-.624,4.111,4.111,0,0,0-1.274-.2q-.211,0-.615.044t-.545.062Zm10.143-.879h2.654a1.429,1.429,0,0,0,1.081-.334,1.949,1.949,0,0,0,.308-1.283h.422v4.166h-.422a5.494,5.494,0,0,0-.062-.914,1.168,1.168,0,0,0-.22-.545.756.756,0,0,0-.431-.281,2.846,2.846,0,0,0-.694-.07H-55.38v4.148a4.171,4.171,0,0,0,.079.905A.815.815,0,0,0-54.958-1a1.425,1.425,0,0,0,.694.255,8.934,8.934,0,0,0,1.169.062h1.213a6.008,6.008,0,0,0,1.23-.105,1.982,1.982,0,0,0,.826-.369,2.108,2.108,0,0,0,.563-.712,8.365,8.365,0,0,0,.457-1.134h.457q-.123.352-.237.712t-.22.712q-.105.369-.193.729t-.158.712q-2.3-.035-4.658-.035t-4.518.035V-.58a1.992,1.992,0,0,0,1.441-.369,2.3,2.3,0,0,0,.334-1.477v-8.7a3.946,3.946,0,0,0-.079-.879.913.913,0,0,0-.29-.51,1.158,1.158,0,0,0-.536-.22,5.07,5.07,0,0,0-.87-.062v-.457q2.109.053,4.342.053t4.219-.053v2.813h-.369a6.509,6.509,0,0,0-.2-1.169,1.371,1.371,0,0,0-.431-.694,1.677,1.677,0,0,0-.773-.316,7.567,7.567,0,0,0-1.283-.088H-55.38ZM-35.71-9.9h-.316a3.709,3.709,0,0,0-1.187-2.347,4.076,4.076,0,0,0-2.663-.765,5.718,5.718,0,0,0-2.276.448,5.286,5.286,0,0,0-1.8,1.257,5.788,5.788,0,0,0-1.178,1.916,6.812,6.812,0,0,0-.422,2.443,7.376,7.376,0,0,0,.466,2.681A6.3,6.3,0,0,0-43.813-2.2a5.589,5.589,0,0,0,1.9,1.327A5.885,5.885,0,0,0-39.577-.4a3.065,3.065,0,0,0,2.408-.923,4.687,4.687,0,0,0,1.09-2.294h.4l-.457,2.9a3.356,3.356,0,0,1-.712.316,9.99,9.99,0,0,1-1.011.281q-.562.123-1.116.2a7,7,0,0,1-.976.079,7.581,7.581,0,0,1-2.786-.492A6.136,6.136,0,0,1-44.9-1.758a6.276,6.276,0,0,1-1.415-2.215,8.065,8.065,0,0,1-.5-2.918,6.249,6.249,0,0,1,.571-2.681,6.767,6.767,0,0,1,1.538-2.118,7.009,7.009,0,0,1,2.18-1.371A6.758,6.758,0,0,1-40-13.553a8.563,8.563,0,0,1,2.1.264,15.836,15.836,0,0,1,2.013.65Zm3.094-1.213a4.047,4.047,0,0,0-.079-.9.97.97,0,0,0-.272-.51,1,1,0,0,0-.527-.229,7.153,7.153,0,0,0-.844-.07v-.457q.334.035.958.035h1.327q.686,0,1.327-.009t.993-.026v.457a7.153,7.153,0,0,0-.844.07,1,1,0,0,0-.527.229.923.923,0,0,0-.264.51,4.537,4.537,0,0,0-.07.9v8.631A2.37,2.37,0,0,0-31.1-.949a1.867,1.867,0,0,0,1.362.369v.439q-.352,0-.976-.009t-1.31-.009h-1.336q-.633,0-.984.018V-.58a1.871,1.871,0,0,0,1.371-.378,2.328,2.328,0,0,0,.352-1.521Zm6.5,8.666a2.075,2.075,0,0,0-.158,1.415q.193.448,1.371.448v.439q-.879-.018-1.934-.018t-1.9.018V-.615A2.809,2.809,0,0,0-27.958-.7a1.106,1.106,0,0,0,.51-.316,1.851,1.851,0,0,0,.369-.571q.158-.36.352-.905l3.973-11.3h.352l3.85,11.338a5.2,5.2,0,0,0,.369.9,1.91,1.91,0,0,0,.422.545,1.562,1.562,0,0,0,.554.308,3.392,3.392,0,0,0,.729.132v.439q-.439,0-.993-.009t-1.134-.009q-.6,0-1.151.009t-.976.009V-.58a4.264,4.264,0,0,0,.879-.07.574.574,0,0,0,.422-.281.89.89,0,0,0,.026-.58q-.079-.369-.255-.967l-.9-2.6H-25.2Zm5.361-3.234-2.074-6.205L-24.97-5.678ZM-6.179-.141q-.879-.018-2.083-.035t-2.47-.018q-1.283,0-2.5.018t-2.092.035V-.562a3.846,3.846,0,0,0,.861-.079.913.913,0,0,0,.51-.29,1.168,1.168,0,0,0,.264-.589,5.638,5.638,0,0,0,.07-.993v-8.578A4.171,4.171,0,0,0-13.693-12a.976.976,0,0,0-.272-.519,1,1,0,0,0-.527-.229,7.04,7.04,0,0,0-.826-.07v-.457q.316.035.949.044t1.318.009q.686,0,1.327-.009t1.011-.044v.457a7.273,7.273,0,0,0-.861.07.926.926,0,0,0-.527.246.923.923,0,0,0-.264.51,4.537,4.537,0,0,0-.07.9v8.578a3.043,3.043,0,0,0,.123.958A.977.977,0,0,0-11.839-1a2.658,2.658,0,0,0,1.011.255q.659.062,1.714.062a8.094,8.094,0,0,0,1.3-.088,2.118,2.118,0,0,0,.9-.352,2.188,2.188,0,0,0,.6-.712,5.931,5.931,0,0,0,.457-1.169h.387ZM11.839-10.846h-.475a5.916,5.916,0,0,0-.079-.844.973.973,0,0,0-.255-.527,1.134,1.134,0,0,0-.58-.29,5,5,0,0,0-1-.079h-2.5V-2.5a5.358,5.358,0,0,0,.07.967,1.16,1.16,0,0,0,.264.58,1.009,1.009,0,0,0,.527.29,3.846,3.846,0,0,0,.861.079v.439q-.457,0-1.063-.009T6.372-.158H5.115q-.606,0-1.046.018V-.58A1.87,1.87,0,0,0,5.423-.949,2.361,2.361,0,0,0,5.774-2.5v-10.09H3.63a5.837,5.837,0,0,0-1.063.079,1.658,1.658,0,0,0-.677.272,1.291,1.291,0,0,0-.413.527,4.854,4.854,0,0,0-.272.861H.729l.193-2.426q1.143.053,2.584.07t2.936.018q1.512,0,2.953-.018t2.6-.07ZM24.161-7.383v-3.762a3.545,3.545,0,0,0-.088-.888,1.016,1.016,0,0,0-.281-.5.957.957,0,0,0-.536-.22q-.343-.044-.835-.062v-.457q.369.018,1.02.026t1.336.009q.7,0,1.318-.009t.949-.026v.457a7.153,7.153,0,0,0-.844.07,1,1,0,0,0-.527.229.865.865,0,0,0-.281.5,4.287,4.287,0,0,0-.07.87v8.666a5.358,5.358,0,0,0,.07.967,1.16,1.16,0,0,0,.264.58.96.96,0,0,0,.527.281,4.312,4.312,0,0,0,.861.07v.439q-.334-.018-.958-.026t-1.31-.009q-.686,0-1.336.009t-1.02.026V-.58A3.565,3.565,0,0,0,23.3-.668a1.061,1.061,0,0,0,.527-.3,1.152,1.152,0,0,0,.264-.571,5.086,5.086,0,0,0,.07-.94V-6.645H15.847v4.166a6.947,6.947,0,0,0,.053.949,1.057,1.057,0,0,0,.246.58.913.913,0,0,0,.51.29,4.047,4.047,0,0,0,.9.079v.439q-.352,0-.976-.009t-1.31-.009H13.931q-.633,0-.984.018V-.58a1.865,1.865,0,0,0,1.389-.378,2.423,2.423,0,0,0,.334-1.521v-8.613a4.047,4.047,0,0,0-.079-.9.97.97,0,0,0-.272-.51.926.926,0,0,0-.527-.246,7.153,7.153,0,0,0-.844-.07v-.457q.334.035.958.044t1.327.009q.686,0,1.327-.009t.993-.044v.457a5.916,5.916,0,0,0-.844.079,1.048,1.048,0,0,0-.527.237,1.023,1.023,0,0,0-.264.527,4.423,4.423,0,0,0-.07.879v3.709Zm6.486,4.939a2.075,2.075,0,0,0-.158,1.415q.193.448,1.371.448v.439q-.879-.018-1.934-.018t-1.9.018V-.615A2.809,2.809,0,0,0,28.8-.7a1.106,1.106,0,0,0,.51-.316,1.851,1.851,0,0,0,.369-.571q.158-.36.352-.905L34-13.8h.352l3.85,11.338a5.2,5.2,0,0,0,.369.9A1.91,1.91,0,0,0,39-1.02a1.562,1.562,0,0,0,.554.308,3.392,3.392,0,0,0,.729.132v.439q-.439,0-.993-.009T38.153-.158q-.6,0-1.151.009t-.976.009V-.58a4.264,4.264,0,0,0,.879-.07.574.574,0,0,0,.422-.281.89.89,0,0,0,.026-.58q-.079-.369-.255-.967l-.9-2.6H31.562Zm5.361-3.234-2.074-6.205L31.79-5.678ZM53.763.053h-.4L43.937-11.461v8.982a5.256,5.256,0,0,0,.079,1.028,1.039,1.039,0,0,0,.29.571,1.02,1.02,0,0,0,.545.246,5.569,5.569,0,0,0,.844.053v.439q-.457,0-1.028-.009T43.515-.158h-1.16q-.562,0-1,.018V-.58a6.037,6.037,0,0,0,.932-.062A1.233,1.233,0,0,0,42.9-.9a1.059,1.059,0,0,0,.352-.562,3.788,3.788,0,0,0,.105-1v-8.561a1.585,1.585,0,0,0-.562-1.415,3.21,3.21,0,0,0-1.758-.378v-.439a3.719,3.719,0,0,0,.58.035h.773q.4,0,.765-.009t.554-.026l9.475,11.32v-9.105a4.069,4.069,0,0,0-.079-.888,1.083,1.083,0,0,0-.272-.536,1.037,1.037,0,0,0-.545-.264,5.634,5.634,0,0,0-.9-.088v-.457q.334.018.914.026t1.178.009q.615,0,1.178-.009t.879-.026v.457a5.465,5.465,0,0,0-.923.062.981.981,0,0,0-.536.255.981.981,0,0,0-.255.536,5.465,5.465,0,0,0-.062.923Zm12.727-1.3a1.309,1.309,0,0,0,.475.4,2.137,2.137,0,0,0,.563.193,2.428,2.428,0,0,0,.554.07h.413v.422q-.246,0-.6-.009t-.721-.009q-.369,0-.721.009t-.58.009l-5.045-7L59.353-5.73v3.27a2.42,2.42,0,0,0,.325,1.538,1.642,1.642,0,0,0,1.2.343v.439q-.352,0-.949-.009T58.685-.158H57.41q-.606,0-.958.018V-.58A4.2,4.2,0,0,0,57.3-.65a.96.96,0,0,0,.527-.281,1.1,1.1,0,0,0,.272-.562,4.776,4.776,0,0,0,.079-.967v-8.613a4.047,4.047,0,0,0-.079-.9,1.078,1.078,0,0,0-.272-.527,1.048,1.048,0,0,0-.527-.237,5.916,5.916,0,0,0-.844-.079v-.457q.334.018.94.026t1.257.009q.65,0,1.239-.009t.905-.026v.457a4.184,4.184,0,0,0-.7.079.8.8,0,0,0-.439.237,1.048,1.048,0,0,0-.237.527,5.17,5.17,0,0,0-.062.9v4.693l5.08-4.922.211-.211a3.2,3.2,0,0,0,.264-.3,1.611,1.611,0,0,0,.237-.3.541.541,0,0,0,.1-.264.355.355,0,0,0-.316-.36,3.065,3.065,0,0,0-.738-.079v-.457q.316.018.8.035T66-13.219h.984a6.872,6.872,0,0,0,.773-.035v.439a2.3,2.3,0,0,0-.606.079,2.338,2.338,0,0,0-.642.308,6.409,6.409,0,0,0-.817.606q-.466.4-1.1,1.011L61.55-7.857ZM69.9-3.217h.492q.123.527.281,1.037a3.045,3.045,0,0,0,.439.9,2.168,2.168,0,0,0,.756.642,2.6,2.6,0,0,0,1.2.237,3.335,3.335,0,0,0,2.215-.721,2.263,2.263,0,0,0,.861-1.811,2.584,2.584,0,0,0-.229-1.116,3.021,3.021,0,0,0-.6-.853,4.955,4.955,0,0,0-.888-.668q-.5-.3-1.046-.6A11.667,11.667,0,0,1,72.272-6.8a6.616,6.616,0,0,1-1-.791,3.891,3.891,0,0,1-.712-1.028,2.965,2.965,0,0,1-.272-1.292,4.024,4.024,0,0,1,.3-1.617,2.993,2.993,0,0,1,.826-1.125,3.405,3.405,0,0,1,1.23-.677,5.042,5.042,0,0,1,1.512-.22,4.785,4.785,0,0,1,.51.026q.246.026.492.044.246.035.5.079t.554.079l.3,2.426h-.457a3.309,3.309,0,0,0-.615-1.582,1.924,1.924,0,0,0-1.547-.527,2.662,2.662,0,0,0-2.048.729,2.46,2.46,0,0,0-.677,1.731,2.276,2.276,0,0,0,.281,1.134,3.661,3.661,0,0,0,.721.905,5.891,5.891,0,0,0,1.02.721q.563.316,1.143.6.563.3,1.081.624a5.221,5.221,0,0,1,.923.729,3.461,3.461,0,0,1,.65.958,2.9,2.9,0,0,1,.246,1.222A3.492,3.492,0,0,1,76.852-2a3.924,3.924,0,0,1-.976,1.2,4.349,4.349,0,0,1-1.38.712,5.163,5.163,0,0,1-1.538.237,6.852,6.852,0,0,1-1.4-.141,5.589,5.589,0,0,1-1.239-.4ZM-78.126,5H78.126V6H-78.126Z" transform="translate(78.126 13.799)"/>
</svg>
